<svg width="192" height="192" viewBox="0 0 192 192" fill="none" xmlns="http://www.w3.org/2000/svg">
<g clip-path="url(#clip0_5_4260)">
<path d="M116.736 39.6019C115.878 40.9136 115.275 42.3753 114.958 43.9104L112.55 44.1369V48.7987L114.958 49.0252C115.275 50.5616 115.878 52.0245 116.736 53.3376L115.2 55.1923L118.495 58.487L120.353 56.951C121.664 57.8113 123.126 58.4147 124.662 58.7289L124.888 61.1366H129.55L129.777 58.7289C131.312 58.414 132.774 57.8107 134.085 56.951L135.944 58.487L139.238 55.1923L137.702 53.3376C138.561 52.0245 139.164 50.5616 139.48 49.0252L141.888 48.7987V44.1369L139.48 43.9104C139.164 42.3753 138.56 40.9136 137.702 39.6019L139.238 37.7433L135.936 34.4486L134.077 35.9846C132.773 35.1292 131.319 34.5261 129.792 34.2067L129.565 31.799H124.884L124.658 34.2067C123.123 34.5227 121.661 35.1259 120.349 35.9846L118.491 34.4486L115.2 37.7433L116.736 39.6019ZM132.572 41.1379C133.63 42.1965 134.351 43.5451 134.643 45.0132C134.934 46.4813 134.784 48.0029 134.211 49.3857C133.638 50.7685 132.668 51.9504 131.424 52.7819C130.179 53.6134 128.716 54.0572 127.219 54.0572C125.722 54.0572 124.259 53.6134 123.015 52.7819C121.77 51.9504 120.8 50.7685 120.227 49.3857C119.654 48.0029 119.504 46.4813 119.796 45.0132C120.088 43.5451 120.808 42.1965 121.866 41.1379C123.284 39.7174 125.207 38.9175 127.213 38.9139C129.22 38.9103 131.146 39.7033 132.568 41.1187L132.572 41.1379Z" fill="#F0F0F0"/>
<path d="M103.634 13.1443H70.7251C69.6774 13.1443 68.8282 13.9936 68.8282 15.0412V40.224C68.8282 41.2716 69.6774 42.1209 70.7251 42.1209H103.634C104.682 42.1209 105.531 41.2716 105.531 40.224V15.0412C105.531 13.9936 104.682 13.1443 103.634 13.1443Z" fill="#E6E6E6"/>
<path d="M70.6022 13.1443H103.784C104.247 13.1443 104.691 13.3284 105.019 13.656C105.347 13.9837 105.531 14.4281 105.531 14.8915V18.1977H68.8282V14.9222C68.8282 14.4513 69.0149 13.9997 69.3475 13.6664C69.6801 13.3331 70.1314 13.1453 70.6022 13.1443Z" fill="#E0E0E0"/>
<path opacity="0.5" d="M103.584 16.0397C103.585 16.2588 103.52 16.4731 103.399 16.6556C103.278 16.838 103.105 16.9804 102.903 17.0645C102.701 17.1487 102.478 17.1709 102.263 17.1284C102.048 17.0858 101.851 16.9804 101.696 16.8255C101.541 16.6706 101.436 16.4732 101.393 16.2584C101.351 16.0435 101.373 15.8208 101.457 15.6186C101.541 15.4163 101.684 15.2436 101.866 15.1224C102.049 15.0012 102.263 14.9369 102.482 14.9376C102.774 14.9376 103.055 15.0537 103.261 15.2604C103.468 15.4671 103.584 15.7474 103.584 16.0397Z" fill="#FAFAFA"/>
<path opacity="0.5" d="M100.451 16.0397C100.451 16.2586 100.387 16.4728 100.266 16.6552C100.145 16.8375 99.9725 16.9799 99.7705 17.0642C99.5685 17.1485 99.346 17.1709 99.1312 17.1287C98.9165 17.0864 98.719 16.9814 98.564 16.8269C98.4089 16.6724 98.3032 16.4753 98.2602 16.2607C98.2173 16.0461 98.2389 15.8235 98.3225 15.6212C98.4061 15.4189 98.5479 15.246 98.7298 15.1243C98.9118 15.0026 99.1257 14.9376 99.3446 14.9376C99.4897 14.9371 99.6334 14.9653 99.7676 15.0204C99.9017 15.0756 100.024 15.1567 100.126 15.2591C100.229 15.3614 100.311 15.4831 100.366 15.6171C100.422 15.751 100.451 15.8947 100.451 16.0397Z" fill="#FAFAFA"/>
<path opacity="0.5" d="M96.2112 17.1418C96.8199 17.1418 97.3133 16.6484 97.3133 16.0397C97.3133 15.431 96.8199 14.9376 96.2112 14.9376C95.6026 14.9376 95.1091 15.431 95.1091 16.0397C95.1091 16.6484 95.6026 17.1418 96.2112 17.1418Z" fill="#FAFAFA"/>
<path opacity="0.6" d="M96.8909 22.4217H77.2531V23.4508H96.8909V22.4217Z" fill="white"/>
<path d="M91.607 24.6451H77.5565V25.6743H91.607V24.6451Z" fill="#E0E0E0"/>
<path d="M102.217 22.4217H98.6266V23.4508H102.217V22.4217Z" fill="#F0F0F0"/>
<path d="M75.8899 22.4217H72.0269V23.4508H75.8899V22.4217Z" fill="#F0F0F0"/>
<path d="M96.8909 27.118H77.2531V28.1472H96.8909V27.118Z" fill="#F0F0F0"/>
<path opacity="0.6" d="M102.217 27.118H98.6266V28.1472H102.217V27.118Z" fill="white"/>
<path d="M75.8899 27.118H72.0269V28.1472H75.8899V27.118Z" fill="#F0F0F0"/>
<path opacity="0.6" d="M96.8909 36.91H77.2531V37.9392H96.8909V36.91Z" fill="white"/>
<path opacity="0.6" d="M102.217 36.91H98.6266V37.9392H102.217V36.91Z" fill="white"/>
<path d="M96.8909 29.5948H77.2531V30.624H96.8909V29.5948Z" fill="#F0F0F0"/>
<path d="M102.217 29.5948H98.6266V30.624H102.217V29.5948Z" fill="#E0E0E0"/>
<path d="M75.8899 29.5948H72.0269V30.624H75.8899V29.5948Z" fill="#E0E0E0"/>
<path d="M102.482 24.6873H93.1469V25.7164H102.482V24.6873Z" fill="#F0F0F0"/>
<path opacity="0.6" d="M91.3037 31.7529H77.2531V32.782H91.3037V31.7529Z" fill="white"/>
<path d="M102.175 31.7952H92.8397V32.8243H102.175V31.7952Z" fill="#F0F0F0"/>
<path d="M84.2803 33.9917H77.2531V35.0208H84.2803V33.9917Z" fill="#E0E0E0"/>
<path d="M153.715 33.5078L149.556 35.4509L153.715 37.3939V38.9606L148.159 36.2726V34.6368L153.715 31.9488V33.5078Z" fill="#E0E0E0"/>
<path d="M166.376 34.6368V36.2649L160.815 38.9529V37.3939L164.974 35.4509L160.815 33.5078V31.9449L166.376 34.6368Z" fill="#E0E0E0"/>
<path d="M158.239 30.8506L155.528 40.2202H156.883L159.594 30.8506H158.239Z" fill="#E0E0E0"/>
<path d="M14.3462 83.6505C13.8431 84.4168 13.49 85.2716 13.3056 86.1695L11.9002 86.3001V89.0227L13.3056 89.1571C13.49 90.0538 13.8432 90.9073 14.3462 91.6723L13.44 92.759L15.36 94.679L16.4429 93.7804C17.21 94.282 18.0645 94.635 18.9619 94.8211L19.0925 96.2265H21.815L21.9494 94.8211C22.8459 94.6356 23.6992 94.2826 24.4646 93.7804L25.5514 94.679L27.4714 92.759L26.5728 91.6723C27.088 90.91 27.453 90.0563 27.648 89.1571L29.0534 89.0227V86.3001L27.648 86.1695C27.4636 85.2716 27.1105 84.4168 26.6074 83.6505L27.4867 82.5599L25.5667 80.6399L24.48 81.5347C23.7144 81.0337 22.861 80.6819 21.9648 80.4979L21.8266 79.1039H19.104L18.9734 80.5094C18.0761 80.6938 17.2215 81.0455 16.4544 81.5462L15.36 80.6399L13.44 82.5599L14.3462 83.6505ZM23.593 84.5375C24.211 85.1557 24.6318 85.9433 24.8022 86.8006C24.9726 87.6579 24.885 88.5465 24.5505 89.3541C24.2159 90.1616 23.6494 90.8518 22.9226 91.3374C22.1958 91.823 21.3413 92.0822 20.4672 92.0822C19.5931 92.0822 18.7386 91.823 18.0118 91.3374C17.285 90.8518 16.7185 90.1616 16.3839 89.3541C16.0494 88.5465 15.9618 87.6579 16.1322 86.8006C16.3026 85.9433 16.7234 85.1557 17.3414 84.5375C18.1709 83.7093 19.2951 83.2441 20.4672 83.2441C21.6393 83.2441 22.7635 83.7093 23.593 84.5375Z" fill="#E0E0E0"/>
<path d="M168.618 51.9628C168.201 52.5983 167.908 53.3071 167.754 54.0518L166.602 54.1632V56.4211L167.754 56.5324C167.908 57.2771 168.201 57.9859 168.618 58.6214L167.873 59.52L169.471 61.1174L170.373 60.3724C171.009 60.7887 171.718 61.0806 172.462 61.2326L172.57 62.3846H174.831L174.943 61.2326C175.687 61.0792 176.395 60.7874 177.032 60.3724L177.93 61.1174L179.532 59.52L178.787 58.6176C179.201 57.9811 179.493 57.2725 179.647 56.5286L180.799 56.4172V54.1593L179.647 54.048C179.493 53.3033 179.2 52.5945 178.783 51.959L179.532 51.0566L177.93 49.4592L177.024 50.208C176.388 49.793 175.679 49.5012 174.935 49.3478L174.824 48.1958H172.57L172.462 49.3478C171.718 49.4998 171.009 49.7917 170.373 50.208L169.471 49.463L167.873 51.072L168.618 51.9628ZM176.298 52.6963C176.812 53.2097 177.161 53.8638 177.303 54.5759C177.445 55.288 177.372 56.0261 177.094 56.6969C176.816 57.3677 176.346 57.9411 175.742 58.3444C175.138 58.7478 174.428 58.9631 173.702 58.9631C172.976 58.9631 172.267 58.7478 171.663 58.3444C171.059 57.9411 170.589 57.3677 170.311 56.6969C170.033 56.0261 169.96 55.288 170.102 54.5759C170.244 53.8638 170.593 53.2097 171.107 52.6963C171.796 52.0087 172.729 51.6226 173.702 51.6226C174.676 51.6226 175.609 52.0087 176.298 52.6963Z" fill="#E0E0E0"/>
<path d="M180.714 163.764H167.332V163.864H180.714V163.764Z" fill="#EBEBEB"/>
<path d="M132.768 164.863H129.254V164.963H132.768V164.863Z" fill="#EBEBEB"/>
<path d="M166.925 160.013H159.172V160.113H166.925V160.013Z" fill="#EBEBEB"/>
<path d="M37.5936 160.692H20.1446V160.792H37.5936V160.692Z" fill="#EBEBEB"/>
<path d="M43.7491 160.692H41.1917V160.792H43.7491V160.692Z" fill="#EBEBEB"/>
<path d="M89.9136 162.397H52.0666V162.497H89.9136V162.397Z" fill="#EBEBEB"/>
<path d="M170.465 134.07H101.057C100.461 134.069 99.889 133.831 99.4672 133.41C99.0455 132.988 98.8081 132.416 98.807 131.82V30.72C98.8081 30.1235 99.0455 29.5517 99.4672 29.1299C99.889 28.7081 100.461 28.4707 101.057 28.4697H170.465C171.062 28.4707 171.634 28.7081 172.055 29.1299C172.477 29.5517 172.715 30.1235 172.716 30.72V131.82C172.715 132.416 172.477 132.988 172.055 133.41C171.634 133.831 171.062 134.069 170.465 134.07ZM101.057 28.5696C100.487 28.5696 99.9393 28.796 99.5354 29.1992C99.1315 29.6023 98.9041 30.1493 98.903 30.72V131.82C98.903 132.391 99.13 132.939 99.534 133.343C99.938 133.747 100.486 133.974 101.057 133.974H170.465C171.037 133.974 171.585 133.747 171.989 133.343C172.393 132.939 172.62 132.391 172.62 131.82V30.72C172.62 30.1486 172.393 29.6007 171.989 29.1967C171.585 28.7927 171.037 28.5657 170.465 28.5657L101.057 28.5696Z" fill="#E0E0E0"/>
<path d="M90.4282 134.07H21.024C20.4269 134.07 19.8541 133.833 19.4315 133.411C19.0089 132.989 18.7709 132.417 18.7699 131.819V30.72C18.7709 30.1228 19.0089 29.5505 19.4315 29.1286C19.8541 28.7067 20.4269 28.4697 21.024 28.4697H90.4282C91.025 28.4697 91.5973 28.7068 92.0193 29.1288C92.4413 29.5508 92.6784 30.1232 92.6784 30.72V131.819C92.6784 132.416 92.4413 132.989 92.0193 133.411C91.5973 133.833 91.025 134.07 90.4282 134.07ZM21.024 28.5696C20.453 28.5696 19.9052 28.7959 19.5007 29.1989C19.0962 29.602 18.868 30.1489 18.8659 30.72V131.819C18.8669 132.391 19.0948 132.939 19.4994 133.343C19.904 133.747 20.4523 133.974 21.024 133.974H90.4282C90.7111 133.974 90.9912 133.918 91.2526 133.81C91.5139 133.701 91.7514 133.543 91.9514 133.343C92.1515 133.143 92.3102 132.905 92.4184 132.644C92.5267 132.383 92.5824 132.102 92.5824 131.819V30.72C92.5824 30.4371 92.5267 30.1569 92.4184 29.8956C92.3102 29.6342 92.1515 29.3967 91.9514 29.1967C91.7514 28.9967 91.5139 28.838 91.2526 28.7297C90.9912 28.6214 90.7111 28.5657 90.4282 28.5657L21.024 28.5696Z" fill="#E0E0E0"/>
<path d="M192 157.521H0V157.617H192V157.521Z" fill="#E0E0E0"/>
<path d="M174.743 171.836C174.743 173.134 138.831 174.19 94.5331 174.19C50.2349 174.19 14.327 173.134 14.327 171.836C14.327 170.538 50.2349 169.478 94.5331 169.478C138.831 169.478 174.743 170.534 174.743 171.836Z" fill="#F5F5F5"/>
<path d="M76.8653 154.441H73.9315V157.375H76.8653V154.441Z" fill="#263238"/>
<path opacity="0.5" d="M36.2918 46.4641H45.3658V135.759H35.6045C34.859 135.759 34.144 135.463 33.6169 134.936C33.0897 134.409 32.7936 133.694 32.7936 132.949V49.9661C32.7931 49.5064 32.8832 49.0511 33.0588 48.6262C33.2344 48.2014 33.492 47.8153 33.8168 47.49C34.1417 47.1648 34.5276 46.9067 34.9522 46.7307C35.3769 46.5547 35.8321 46.4641 36.2918 46.4641Z" fill="white"/>
<path opacity="0.5" d="M82.7981 134.22L78.8045 154.683H84.599L89.2224 134.389L82.7981 134.22Z" fill="white"/>
<path opacity="0.5" d="M76.8653 154.441H73.9315V157.375H76.8653V154.441Z" fill="white"/>
<path d="M119.186 157.375H81.9686L87.2563 126.363H112.024L119.186 157.375Z" fill="#263238"/>
<path opacity="0.7" d="M119.186 157.375H81.9686L87.2563 126.363H112.024L119.186 157.375Z" fill="white"/>
<path opacity="0.1" d="M114.182 135.759H85.6397L84.5991 141.869L115.012 139.357L114.182 135.759Z" fill="black"/>
<path d="M124.285 154.441H76.0435V157.375H124.285V154.441Z" fill="#263238"/>
<g opacity="0.7">
<path d="M124.285 154.441H76.0435V157.375H124.285V154.441Z" fill="white"/>
</g>
<path d="M38.8723 46.4641H159.54C160.363 46.4752 161.148 46.8114 161.723 47.3992C162.299 47.987 162.619 48.7787 162.612 49.6013V132.622C162.619 133.445 162.299 134.236 161.723 134.824C161.148 135.412 160.363 135.748 159.54 135.759H38.8723C38.0497 135.748 37.2649 135.412 36.6894 134.824C36.1138 134.236 35.7942 133.445 35.8003 132.622V49.6052C35.7932 48.7818 36.1123 47.9892 36.688 47.4005C37.2637 46.8119 38.0491 46.4752 38.8723 46.4641Z" fill="#263238"/>
<g opacity="0.7">
<path d="M38.8723 46.4641H159.54C160.363 46.4752 161.148 46.8114 161.723 47.3992C162.299 47.987 162.619 48.7787 162.612 49.6013V132.622C162.619 133.445 162.299 134.236 161.723 134.824C161.148 135.412 160.363 135.748 159.54 135.759H38.8723C38.0497 135.748 37.2649 135.412 36.6894 134.824C36.1138 134.236 35.7942 133.445 35.8003 132.622V49.6052C35.7932 48.7818 36.1123 47.9892 36.688 47.4005C37.2637 46.8119 38.0491 46.4752 38.8723 46.4641Z" fill="white"/>
</g>
<path d="M159.256 49.5399H38.6112V129.589H159.256V49.5399Z" fill="#FB8181"/>
<path opacity="0.9" d="M159.256 49.5399H38.6112V129.589H159.256V49.5399Z" fill="white"/>
<path d="M159.256 49.5399H38.6112V55.9642H159.256V49.5399Z" fill="#FB8181"/>
<path opacity="0.5" d="M157.651 52.754C157.652 53.0245 157.572 53.2892 157.423 53.5145C157.273 53.7399 157.06 53.9157 156.81 54.0197C156.56 54.1238 156.285 54.1514 156.02 54.0991C155.754 54.0468 155.51 53.9169 155.319 53.7259C155.127 53.5348 154.997 53.2912 154.944 53.026C154.891 52.7607 154.917 52.4856 155.021 52.2356C155.124 51.9856 155.299 51.7718 155.524 51.6215C155.749 51.4711 156.014 51.3908 156.284 51.3908C156.646 51.3908 156.993 51.5343 157.249 51.7898C157.506 52.0454 157.65 52.3921 157.651 52.754Z" fill="white"/>
<path opacity="0.5" d="M153.769 52.754C153.77 53.0247 153.69 53.2895 153.54 53.5149C153.39 53.7403 153.177 53.9161 152.927 54.02C152.677 54.124 152.402 54.1514 152.136 54.0987C151.871 54.0461 151.627 53.9158 151.435 53.7244C151.244 53.533 151.114 53.2891 151.061 53.0235C151.008 52.758 151.036 52.4828 151.14 52.2329C151.244 51.9829 151.419 51.7695 151.645 51.6195C151.87 51.4696 152.135 51.39 152.406 51.3908C152.767 51.3918 153.113 51.5357 153.369 51.7911C153.624 52.0466 153.768 52.3927 153.769 52.754Z" fill="white"/>
<path opacity="0.5" d="M149.891 52.754C149.891 53.0245 149.812 53.2892 149.662 53.5145C149.512 53.7399 149.299 53.9157 149.049 54.0197C148.8 54.1238 148.525 54.1514 148.259 54.0991C147.994 54.0468 147.75 53.9169 147.558 53.7259C147.367 53.5348 147.236 53.2912 147.183 53.026C147.13 52.7607 147.157 52.4856 147.26 52.2356C147.364 51.9856 147.539 51.7718 147.764 51.6215C147.989 51.4711 148.253 51.3908 148.524 51.3908C148.885 51.3908 149.233 51.5343 149.489 51.7898C149.745 52.0454 149.89 52.3921 149.891 52.754Z" fill="white"/>
<path d="M60.9792 102.843C60.5944 103.434 60.3235 104.092 60.1805 104.782L59.0976 104.882V106.979L60.1805 107.082C60.326 107.766 60.5968 108.417 60.9792 109.002L60.288 109.839L61.7703 111.322L62.6074 110.63C63.1923 111.013 63.8434 111.284 64.5274 111.429L64.6311 112.512H66.7277L66.8275 111.429C67.5181 111.286 68.1758 111.015 68.7667 110.63L69.6 111.322L71.0823 109.839L70.3911 109.002C70.7768 108.418 71.049 107.767 71.1936 107.082L72.2727 106.979V104.882L71.1936 104.782C71.0509 104.091 70.7786 103.433 70.3911 102.843L71.0823 102.01L69.6 100.527L68.7667 101.219C68.1768 100.831 67.5188 100.559 66.8275 100.416L66.7277 99.337H64.6311L64.5274 100.416C63.8426 100.561 63.1913 100.833 62.6074 101.219L61.7703 100.527L60.288 102.01L60.9792 102.843ZM67.6224 103.995C68.0059 104.375 68.2678 104.861 68.3748 105.391C68.4818 105.92 68.4291 106.469 68.2234 106.969C68.0177 107.468 67.6683 107.895 67.2194 108.196C66.7706 108.497 66.2426 108.657 65.7024 108.657C65.1622 108.657 64.6342 108.497 64.1854 108.196C63.7366 107.895 63.3871 107.468 63.1814 106.969C62.9757 106.469 62.923 105.92 63.03 105.391C63.137 104.861 63.3989 104.375 63.7824 103.995C64.2941 103.489 64.9847 103.207 65.704 103.208C66.4232 103.209 67.1128 103.495 67.6224 104.003V103.995Z" fill="#FB8181"/>
<path opacity="0.4" d="M60.9792 102.843C60.5944 103.434 60.3235 104.092 60.1805 104.782L59.0976 104.882V106.979L60.1805 107.082C60.326 107.766 60.5968 108.417 60.9792 109.002L60.288 109.839L61.7703 111.322L62.6074 110.63C63.1923 111.013 63.8434 111.284 64.5274 111.429L64.6311 112.512H66.7277L66.8275 111.429C67.5181 111.286 68.1758 111.015 68.7667 110.63L69.6 111.322L71.0823 109.839L70.3911 109.002C70.7768 108.418 71.049 107.767 71.1936 107.082L72.2727 106.979V104.882L71.1936 104.782C71.0509 104.091 70.7786 103.433 70.3911 102.843L71.0823 102.01L69.6 100.527L68.7667 101.219C68.1768 100.831 67.5188 100.559 66.8275 100.416L66.7277 99.337H64.6311L64.5274 100.416C63.8426 100.561 63.1913 100.833 62.6074 101.219L61.7703 100.527L60.288 102.01L60.9792 102.843ZM67.6224 103.995C68.0059 104.375 68.2678 104.861 68.3748 105.391C68.4818 105.92 68.4291 106.469 68.2234 106.969C68.0177 107.468 67.6683 107.895 67.2194 108.196C66.7706 108.497 66.2426 108.657 65.7024 108.657C65.1622 108.657 64.6342 108.497 64.1854 108.196C63.7366 107.895 63.3871 107.468 63.1814 106.969C62.9757 106.469 62.923 105.92 63.03 105.391C63.137 104.861 63.3989 104.375 63.7824 103.995C64.2941 103.489 64.9847 103.207 65.704 103.208C66.4232 103.209 67.1128 103.495 67.6224 104.003V103.995Z" fill="white"/>
<path d="M122.849 77.184C122.491 77.7311 122.24 78.3408 122.108 78.9811L121.106 79.0733V81.024L122.108 81.1161C122.24 81.7565 122.491 82.3661 122.849 82.9133L122.208 83.6813L123.583 85.056L124.351 84.4147C124.898 84.7725 125.508 85.024 126.148 85.1558L126.24 86.1581H128.183L128.275 85.1558C128.916 85.024 129.525 84.7725 130.072 84.4147L130.84 85.056L132.215 83.6813L131.574 82.9133C131.932 82.3661 132.183 81.7565 132.315 81.1161L133.317 81.024V79.104L132.315 79.0118C132.183 78.3715 131.932 77.7618 131.574 77.2147L132.215 76.4467L130.84 75.072L130.072 75.7133C129.525 75.3554 128.916 75.104 128.275 74.9721L128.183 73.9699H126.24L126.148 74.9721C125.508 75.104 124.898 75.3554 124.351 75.7133L123.583 75.072L122.208 76.416L122.849 77.184ZM128.993 78.2592C129.347 78.6124 129.588 79.0627 129.686 79.5529C129.783 80.0431 129.734 80.5513 129.542 81.0131C129.351 81.475 129.027 81.8698 128.612 82.1476C128.196 82.4254 127.708 82.5736 127.208 82.5736C126.708 82.5736 126.219 82.4254 125.804 82.1476C125.388 81.8698 125.064 81.475 124.873 81.0131C124.682 80.5513 124.632 80.0431 124.73 79.5529C124.827 79.0627 125.068 78.6124 125.422 78.2592C125.657 78.024 125.937 77.8377 126.244 77.7109C126.552 77.5841 126.881 77.5194 127.214 77.5205C127.547 77.5216 127.876 77.5884 128.182 77.7171C128.489 77.8459 128.767 78.034 129.001 78.2707L128.993 78.2592Z" fill="#FB8181"/>
<path opacity="0.4" d="M122.849 77.184C122.491 77.7311 122.24 78.3408 122.108 78.9811L121.106 79.0733V81.024L122.108 81.1161C122.24 81.7565 122.491 82.3661 122.849 82.9133L122.208 83.6813L123.583 85.056L124.351 84.4147C124.898 84.7725 125.508 85.024 126.148 85.1558L126.24 86.1581H128.183L128.275 85.1558C128.916 85.024 129.525 84.7725 130.072 84.4147L130.84 85.056L132.215 83.6813L131.574 82.9133C131.932 82.3661 132.183 81.7565 132.315 81.1161L133.317 81.024V79.104L132.315 79.0118C132.183 78.3715 131.932 77.7618 131.574 77.2147L132.215 76.4467L130.84 75.072L130.072 75.7133C129.525 75.3554 128.916 75.104 128.275 74.9721L128.183 73.9699H126.24L126.148 74.9721C125.508 75.104 124.898 75.3554 124.351 75.7133L123.583 75.072L122.208 76.416L122.849 77.184ZM128.993 78.2592C129.347 78.6124 129.588 79.0627 129.686 79.5529C129.783 80.0431 129.734 80.5513 129.542 81.0131C129.351 81.475 129.027 81.8698 128.612 82.1476C128.196 82.4254 127.708 82.5736 127.208 82.5736C126.708 82.5736 126.219 82.4254 125.804 82.1476C125.388 81.8698 125.064 81.475 124.873 81.0131C124.682 80.5513 124.632 80.0431 124.73 79.5529C124.827 79.0627 125.068 78.6124 125.422 78.2592C125.657 78.024 125.937 77.8377 126.244 77.7109C126.552 77.5841 126.881 77.5194 127.214 77.5205C127.547 77.5216 127.876 77.5884 128.182 77.7171C128.489 77.8459 128.767 78.034 129.001 78.2707L128.993 78.2592Z" fill="white"/>
<path d="M120.445 66.4512C120.217 66.8027 120.056 67.1932 119.969 67.6032L119.32 67.6608V68.9165L119.969 68.978C120.055 69.3883 120.216 69.7791 120.445 70.13L120.031 70.6292L120.918 71.5162L121.421 71.1015C121.771 71.3335 122.162 71.4964 122.573 71.5815L122.634 72.2305H123.886L123.948 71.5815C124.359 71.4964 124.75 71.3335 125.1 71.1015L125.599 71.5162L126.486 70.6292L126.075 70.13C126.304 69.7791 126.466 69.3883 126.551 68.978L127.2 68.9165V67.6608L126.551 67.5994C126.464 67.1895 126.303 66.799 126.075 66.4474L126.486 65.9482L125.599 65.0612L125.1 65.4759C124.749 65.2454 124.358 65.0826 123.948 64.9959L123.886 64.3508H122.634L122.573 64.9959C122.162 65.0826 121.772 65.2454 121.421 65.4759L120.918 65.0612L120.031 65.9482L120.445 66.4512ZM124.416 67.1463C124.645 67.3743 124.801 67.6651 124.864 67.9818C124.928 68.2985 124.896 68.627 124.772 68.9255C124.649 69.2241 124.44 69.4793 124.171 69.6588C123.903 69.8384 123.587 69.9343 123.264 69.9343C122.941 69.9343 122.625 69.8384 122.357 69.6588C122.088 69.4793 121.879 69.2241 121.756 68.9255C121.632 68.627 121.6 68.2985 121.664 67.9818C121.727 67.6651 121.883 67.3743 122.112 67.1463C122.418 66.8414 122.832 66.6703 123.264 66.6703C123.696 66.6703 124.11 66.8414 124.416 67.1463Z" fill="#FB8181"/>
<path opacity="0.7" d="M120.445 66.4512C120.217 66.8027 120.056 67.1932 119.969 67.6032L119.32 67.6608V68.9165L119.969 68.978C120.055 69.3883 120.216 69.7791 120.445 70.13L120.031 70.6292L120.918 71.5162L121.421 71.1015C121.771 71.3335 122.162 71.4964 122.573 71.5815L122.634 72.2305H123.886L123.948 71.5815C124.359 71.4964 124.75 71.3335 125.1 71.1015L125.599 71.5162L126.486 70.6292L126.075 70.13C126.304 69.7791 126.466 69.3883 126.551 68.978L127.2 68.9165V67.6608L126.551 67.5994C126.464 67.1895 126.303 66.799 126.075 66.4474L126.486 65.9482L125.599 65.0612L125.1 65.4759C124.749 65.2454 124.358 65.0826 123.948 64.9959L123.886 64.3508H122.634L122.573 64.9959C122.162 65.0826 121.772 65.2454 121.421 65.4759L120.918 65.0612L120.031 65.9482L120.445 66.4512ZM124.416 67.1463C124.645 67.3743 124.801 67.6651 124.864 67.9818C124.928 68.2985 124.896 68.627 124.772 68.9255C124.649 69.2241 124.44 69.4793 124.171 69.6588C123.903 69.8384 123.587 69.9343 123.264 69.9343C122.941 69.9343 122.625 69.8384 122.357 69.6588C122.088 69.4793 121.879 69.2241 121.756 68.9255C121.632 68.627 121.6 68.2985 121.664 67.9818C121.727 67.6651 121.883 67.3743 122.112 67.1463C122.418 66.8414 122.832 66.6703 123.264 66.6703C123.696 66.6703 124.11 66.8414 124.416 67.1463Z" fill="white"/>
<path d="M67.968 115.419C67.74 115.77 67.5786 116.161 67.4919 116.571L66.8429 116.632V117.888L67.4919 117.949C67.5779 118.36 67.7394 118.75 67.968 119.101L67.5571 119.601L68.4442 120.488L68.9434 120.073C69.2932 120.305 69.6843 120.468 70.0954 120.553L70.1568 121.202H71.424L71.4855 120.553C71.8966 120.468 72.2876 120.305 72.6375 120.073L73.1405 120.488L74.0275 119.601L73.6128 119.101C73.843 118.751 74.0046 118.36 74.089 117.949L74.7379 117.888V116.632L74.089 116.571C74.0039 116.16 73.8424 115.77 73.6128 115.419L74.0275 114.92L73.1405 114.048L72.6375 114.432C72.2868 114.202 71.896 114.039 71.4855 113.952L71.424 113.307H70.1722L70.1107 113.952C69.7002 114.039 69.3094 114.202 68.9587 114.432L68.4595 114.017L67.5725 114.904L67.968 115.419ZM71.9463 116.114C72.1751 116.342 72.331 116.633 72.3945 116.949C72.4579 117.266 72.4259 117.595 72.3026 117.893C72.1792 118.192 71.97 118.447 71.7015 118.626C71.433 118.806 71.1173 118.902 70.7943 118.902C70.4712 118.902 70.1555 118.806 69.887 118.626C69.6185 118.447 69.4093 118.192 69.2859 117.893C69.1626 117.595 69.1306 117.266 69.194 116.949C69.2575 116.633 69.4134 116.342 69.6423 116.114C69.9481 115.809 70.3624 115.638 70.7943 115.638C71.2261 115.638 71.6404 115.809 71.9463 116.114Z" fill="#FB8181"/>
<path opacity="0.7" d="M67.968 115.419C67.74 115.77 67.5786 116.161 67.4919 116.571L66.8429 116.632V117.888L67.4919 117.949C67.5779 118.36 67.7394 118.75 67.968 119.101L67.5571 119.601L68.4442 120.488L68.9434 120.073C69.2932 120.305 69.6843 120.468 70.0954 120.553L70.1568 121.202H71.424L71.4855 120.553C71.8966 120.468 72.2876 120.305 72.6375 120.073L73.1405 120.488L74.0275 119.601L73.6128 119.101C73.843 118.751 74.0046 118.36 74.089 117.949L74.7379 117.888V116.632L74.089 116.571C74.0039 116.16 73.8424 115.77 73.6128 115.419L74.0275 114.92L73.1405 114.048L72.6375 114.432C72.2868 114.202 71.896 114.039 71.4855 113.952L71.424 113.307H70.1722L70.1107 113.952C69.7002 114.039 69.3094 114.202 68.9587 114.432L68.4595 114.017L67.5725 114.904L67.968 115.419ZM71.9463 116.114C72.1751 116.342 72.331 116.633 72.3945 116.949C72.4579 117.266 72.4259 117.595 72.3026 117.893C72.1792 118.192 71.97 118.447 71.7015 118.626C71.433 118.806 71.1173 118.902 70.7943 118.902C70.4712 118.902 70.1555 118.806 69.887 118.626C69.6185 118.447 69.4093 118.192 69.2859 117.893C69.1626 117.595 69.1306 117.266 69.194 116.949C69.2575 116.633 69.4134 116.342 69.6423 116.114C69.9481 115.809 70.3624 115.638 70.7943 115.638C71.2261 115.638 71.6404 115.809 71.9463 116.114Z" fill="white"/>
<path d="M76.608 79.2154C74.9393 81.7633 73.7668 84.6035 73.152 87.5866L68.4749 88.0282V97.0829L73.152 97.536C73.7676 100.52 74.94 103.361 76.608 105.911L73.6205 109.517L80.0256 115.922L83.6314 112.934C86.1811 114.602 89.0224 115.775 92.0064 116.39L92.448 121.068H101.503L101.944 116.39C104.927 115.776 107.768 114.603 110.316 112.934L113.925 115.922L120.33 109.517L117.343 105.911C119.011 103.362 120.184 100.52 120.799 97.536L125.472 97.0944V88.0282L120.799 87.5866C120.183 84.6037 119.011 81.7637 117.343 79.2154L120.33 75.6058L113.925 69.2045L110.316 72.1882C107.767 70.5202 104.927 69.3477 101.944 68.7322L101.503 64.0551H92.448L92.0064 68.736C89.0224 69.3516 86.1811 70.524 83.6314 72.192L80.0256 69.2045L73.6205 75.6096L76.608 79.2154ZM107.374 82.176C109.431 84.2328 110.832 86.8533 111.4 89.7063C111.967 92.5593 111.676 95.5165 110.563 98.2041C109.45 100.892 107.565 103.189 105.146 104.805C102.728 106.421 99.8843 107.284 96.9754 107.284C94.0665 107.284 91.2229 106.421 88.8042 104.805C86.3856 103.189 84.5005 100.892 83.3875 98.2041C82.2744 95.5165 81.9833 92.5593 82.5509 89.7063C83.1186 86.8533 84.5196 84.2328 86.5767 82.176C89.3352 79.4193 93.0755 77.8708 96.9754 77.8708C100.875 77.8708 104.616 79.4193 107.374 82.176Z" fill="#FB8181"/>
<path d="M92.6439 93.8496H89.3799L88.7539 95.3587H87.0874L90.24 88.32H91.8451L94.9901 95.3549H93.2813L92.6439 93.8496ZM92.1331 92.6131L91.0157 89.9251L89.9021 92.6131H92.1331Z" fill="#FB8181"/>
<path d="M100.378 88.6349C100.696 88.7872 100.979 89.0047 101.208 89.2733C101.437 89.5419 101.607 89.8557 101.707 90.1942C101.807 90.5327 101.834 90.8884 101.788 91.2383C101.742 91.5882 101.622 91.9245 101.437 92.2253C101.179 92.6186 100.81 92.9271 100.378 93.1123C99.8633 93.3256 99.31 93.4289 98.7533 93.4157H97.3363V95.3587H95.7082V88.32H98.7533C99.311 88.3084 99.8647 88.4158 100.378 88.6349ZM99.7786 91.776C99.9002 91.6589 99.9969 91.5184 100.063 91.363C100.129 91.2076 100.163 91.0405 100.163 90.8717C100.163 90.7028 100.129 90.5357 100.063 90.3803C99.9969 90.225 99.9002 90.0845 99.7786 89.9674C99.456 89.7344 99.062 89.6217 98.665 89.6486H97.3363V92.0909H98.665C99.0615 92.119 99.4555 92.0076 99.7786 91.776Z" fill="#FB8181"/>
<path d="M102.966 88.32H104.594V95.3549H102.966V88.32Z" fill="#FB8181"/>
<path d="M83.6314 94.4179C83.5836 94.4182 83.5375 94.4006 83.502 94.3687C83.4665 94.3367 83.4441 94.2927 83.4394 94.2451C83.2215 92.313 83.4011 90.3567 83.967 88.4964C84.5329 86.6362 85.4733 84.9114 86.7302 83.4279C86.7466 83.4087 86.7666 83.393 86.7891 83.3815C86.8116 83.3701 86.8361 83.3632 86.8612 83.3612C86.8864 83.3593 86.9116 83.3623 86.9356 83.3701C86.9596 83.3779 86.9818 83.3904 87.001 83.4067C87.0201 83.4231 87.0359 83.4431 87.0473 83.4656C87.0587 83.4881 87.0656 83.5126 87.0676 83.5377C87.0696 83.5629 87.0665 83.5881 87.0587 83.6121C87.0509 83.6361 87.0385 83.6583 87.0221 83.6775C85.7986 85.1213 84.8836 86.8004 84.3335 88.6112C83.7834 90.422 83.6098 92.3263 83.8234 94.2067C83.8277 94.2575 83.8121 94.308 83.7798 94.3474C83.7475 94.3868 83.7012 94.4121 83.6506 94.4179H83.6314Z" fill="#FB8181"/>
<path d="M84.2803 97.4516C84.2386 97.4522 84.1979 97.439 84.1645 97.4139C84.1312 97.3889 84.1071 97.3535 84.096 97.3133C83.9377 96.7782 83.8095 96.2346 83.712 95.6851C83.7075 95.6599 83.7079 95.6341 83.7134 95.609C83.7188 95.584 83.7292 95.5603 83.7438 95.5393C83.7584 95.5182 83.777 95.5003 83.7986 95.4864C83.8201 95.4726 83.8442 95.4631 83.8694 95.4586C83.8946 95.4541 83.9205 95.4545 83.9455 95.46C83.9706 95.4654 83.9943 95.4758 84.0153 95.4904C84.0364 95.505 84.0543 95.5236 84.0682 95.5452C84.082 95.5667 84.0915 95.5908 84.096 95.616C84.1953 96.1525 84.3235 96.6832 84.48 97.2058C84.4943 97.2547 84.4885 97.3072 84.464 97.3519C84.4395 97.3965 84.3983 97.4296 84.3494 97.4439C84.3274 97.4523 84.3036 97.4549 84.2803 97.4516Z" fill="#FB8181"/>
<path d="M65.6947 91.9142H49.2787C49.2278 91.9142 49.179 91.894 49.143 91.858C49.107 91.822 49.0867 91.7732 49.0867 91.7222V72.4992C49.0867 72.4483 49.107 72.3994 49.143 72.3634C49.179 72.3274 49.2278 72.3072 49.2787 72.3072C49.3297 72.3072 49.3785 72.3274 49.4145 72.3634C49.4505 72.3994 49.4707 72.4483 49.4707 72.4992V91.5302H65.6947C65.7457 91.5302 65.7945 91.5505 65.8305 91.5865C65.8665 91.6225 65.8867 91.6713 65.8867 91.7222C65.8857 91.7728 65.8652 91.8211 65.8294 91.8569C65.7936 91.8927 65.7453 91.9132 65.6947 91.9142Z" fill="#FB8181"/>
<path d="M49.2787 73.4823C49.8217 73.4823 50.2618 73.0421 50.2618 72.4992C50.2618 71.9563 49.8217 71.5162 49.2787 71.5162C48.7358 71.5162 48.2957 71.9563 48.2957 72.4992C48.2957 73.0421 48.7358 73.4823 49.2787 73.4823Z" fill="#FB8181"/>
<path d="M149.453 107.896C149.996 107.896 150.436 107.456 150.436 106.913C150.436 106.37 149.996 105.93 149.453 105.93C148.91 105.93 148.47 106.37 148.47 106.913C148.47 107.456 148.91 107.896 149.453 107.896Z" fill="#FB8181"/>
<path d="M149.645 114.586H125.215V104.06H121.805V103.676H125.599V114.202H149.261V106.771H149.645V114.586Z" fill="#FB8181"/>
<path d="M180.05 117.27H138.236V157.375H180.05V117.27Z" fill="#FB8181"/>
<path opacity="0.4" d="M180.05 117.27H138.236V157.375H180.05V117.27Z" fill="white"/>
<path opacity="0.4" d="M180.046 117.27H151.546V157.375H180.046V117.27Z" fill="white"/>
<path d="M178.621 119.32H152.97V124.285H178.621V119.32Z" fill="#FB8181"/>
<path d="M178.621 125.53H152.97V130.495H178.621V125.53Z" fill="#FB8181"/>
<path d="M178.621 131.735H152.97V136.7H178.621V131.735Z" fill="#FB8181"/>
<path d="M178.621 137.944H152.97V142.909H178.621V137.944Z" fill="#FB8181"/>
<path d="M178.621 144.154H152.97V149.119H178.621V144.154Z" fill="#FB8181"/>
<path d="M178.621 150.363H152.97V155.328H178.621V150.363Z" fill="#FB8181"/>
<path d="M150.056 119.32H139.73V124.285H150.056V119.32Z" fill="#FB8181"/>
<path d="M150.056 125.53H139.73V130.495H150.056V125.53Z" fill="#FB8181"/>
<path d="M150.056 131.735H139.73V136.7H150.056V131.735Z" fill="#FB8181"/>
<path d="M150.056 137.944H139.73V142.909H150.056V137.944Z" fill="#FB8181"/>
<path d="M150.056 144.154H139.73V149.119H150.056V144.154Z" fill="#FB8181"/>
<path d="M150.056 150.363H139.73V155.328H150.056V150.363Z" fill="#FB8181"/>
<path opacity="0.3" d="M177.366 119.965H176.767V123.64H177.366V119.965Z" fill="white"/>
<path opacity="0.3" d="M176.214 119.965H175.615V123.64H176.214V119.965Z" fill="white"/>
<path opacity="0.3" d="M175.062 119.965H174.463V123.64H175.062V119.965Z" fill="white"/>
<path opacity="0.3" d="M173.91 119.965H173.311V123.64H173.91V119.965Z" fill="white"/>
<path opacity="0.3" d="M172.758 119.965H172.159V123.64H172.758V119.965Z" fill="white"/>
<path opacity="0.3" d="M177.366 126.175H176.767V129.846H177.366V126.175Z" fill="white"/>
<path opacity="0.3" d="M176.214 126.175H175.615V129.846H176.214V126.175Z" fill="white"/>
<path opacity="0.3" d="M175.062 126.175H174.463V129.846H175.062V126.175Z" fill="white"/>
<path opacity="0.3" d="M173.91 126.175H173.311V129.846H173.91V126.175Z" fill="white"/>
<path opacity="0.3" d="M172.758 126.175H172.159V129.846H172.758V126.175Z" fill="white"/>
<path opacity="0.3" d="M177.366 132.384H176.767V136.055H177.366V132.384Z" fill="white"/>
<path opacity="0.3" d="M176.214 132.384H175.615V136.055H176.214V132.384Z" fill="white"/>
<path opacity="0.3" d="M175.062 132.384H174.463V136.055H175.062V132.384Z" fill="white"/>
<path opacity="0.3" d="M173.91 132.384H173.311V136.055H173.91V132.384Z" fill="white"/>
<path opacity="0.3" d="M172.758 132.384H172.159V136.055H172.758V132.384Z" fill="white"/>
<path opacity="0.3" d="M177.366 138.593H176.767V142.268H177.366V138.593Z" fill="white"/>
<path opacity="0.3" d="M176.214 138.593H175.615V142.268H176.214V138.593Z" fill="white"/>
<path opacity="0.3" d="M175.062 138.593H174.463V142.268H175.062V138.593Z" fill="white"/>
<path opacity="0.3" d="M173.91 138.593H173.311V142.268H173.91V138.593Z" fill="white"/>
<path opacity="0.3" d="M172.758 138.593H172.159V142.268H172.758V138.593Z" fill="white"/>
<path opacity="0.3" d="M177.366 144.803H176.767V148.474H177.366V144.803Z" fill="white"/>
<path opacity="0.3" d="M176.214 144.803H175.615V148.474H176.214V144.803Z" fill="white"/>
<path opacity="0.3" d="M175.062 144.803H174.463V148.474H175.062V144.803Z" fill="white"/>
<path opacity="0.3" d="M173.91 144.803H173.311V148.474H173.91V144.803Z" fill="white"/>
<path opacity="0.3" d="M172.758 144.803H172.159V148.474H172.758V144.803Z" fill="white"/>
<path opacity="0.3" d="M177.366 151.008H176.767V154.683H177.366V151.008Z" fill="white"/>
<path opacity="0.3" d="M176.214 151.008H175.615V154.683H176.214V151.008Z" fill="white"/>
<path opacity="0.3" d="M175.062 151.008H174.463V154.683H175.062V151.008Z" fill="white"/>
<path opacity="0.3" d="M173.91 151.008H173.311V154.683H173.91V151.008Z" fill="white"/>
<path opacity="0.3" d="M172.758 151.008H172.159V154.683H172.758V151.008Z" fill="white"/>
<path opacity="0.2" d="M155.954 121.801C155.954 121.922 155.918 122.04 155.851 122.14C155.784 122.241 155.689 122.319 155.577 122.365C155.465 122.411 155.343 122.423 155.224 122.4C155.106 122.376 154.997 122.318 154.912 122.233C154.826 122.147 154.768 122.039 154.745 121.92C154.721 121.802 154.733 121.679 154.779 121.567C154.825 121.456 154.904 121.36 155.004 121.293C155.105 121.226 155.223 121.19 155.343 121.19C155.505 121.19 155.661 121.255 155.775 121.369C155.89 121.484 155.954 121.639 155.954 121.801Z" fill="white"/>
<path opacity="0.2" d="M159.794 121.801C159.794 121.922 159.758 122.04 159.691 122.14C159.624 122.241 159.529 122.319 159.417 122.365C159.305 122.411 159.183 122.423 159.064 122.4C158.946 122.376 158.837 122.318 158.752 122.233C158.666 122.147 158.608 122.039 158.585 121.92C158.561 121.802 158.573 121.679 158.619 121.567C158.665 121.456 158.744 121.36 158.844 121.293C158.945 121.226 159.063 121.19 159.183 121.19C159.345 121.19 159.501 121.255 159.615 121.369C159.73 121.484 159.794 121.639 159.794 121.801Z" fill="white"/>
<path opacity="0.4" d="M163.634 121.801C163.634 121.922 163.598 122.04 163.531 122.14C163.464 122.241 163.369 122.319 163.257 122.365C163.145 122.411 163.023 122.423 162.904 122.4C162.786 122.376 162.677 122.318 162.592 122.233C162.506 122.147 162.448 122.039 162.425 121.92C162.401 121.802 162.413 121.679 162.459 121.567C162.506 121.456 162.584 121.36 162.684 121.293C162.785 121.226 162.903 121.19 163.023 121.19C163.185 121.19 163.341 121.255 163.455 121.369C163.57 121.484 163.634 121.639 163.634 121.801Z" fill="white"/>
<path opacity="0.4" d="M155.954 128.01C155.954 128.131 155.918 128.249 155.851 128.349C155.784 128.45 155.689 128.528 155.577 128.574C155.465 128.621 155.343 128.633 155.224 128.609C155.106 128.585 154.997 128.527 154.912 128.442C154.826 128.357 154.768 128.248 154.745 128.129C154.721 128.011 154.733 127.888 154.779 127.777C154.825 127.665 154.904 127.57 155.004 127.503C155.105 127.435 155.223 127.4 155.343 127.4C155.505 127.4 155.661 127.464 155.775 127.578C155.89 127.693 155.954 127.848 155.954 128.01Z" fill="white"/>
<path opacity="0.2" d="M159.794 128.01C159.794 128.131 159.758 128.249 159.691 128.349C159.624 128.45 159.529 128.528 159.417 128.574C159.305 128.621 159.183 128.633 159.064 128.609C158.946 128.585 158.837 128.527 158.752 128.442C158.666 128.357 158.608 128.248 158.585 128.129C158.561 128.011 158.573 127.888 158.619 127.777C158.665 127.665 158.744 127.57 158.844 127.503C158.945 127.435 159.063 127.4 159.183 127.4C159.345 127.4 159.501 127.464 159.615 127.578C159.73 127.693 159.794 127.848 159.794 128.01Z" fill="white"/>
<path opacity="0.4" d="M163.634 128.01C163.634 128.131 163.598 128.249 163.531 128.349C163.464 128.45 163.369 128.528 163.257 128.574C163.145 128.621 163.023 128.633 162.904 128.609C162.786 128.585 162.677 128.527 162.592 128.442C162.506 128.357 162.448 128.248 162.425 128.129C162.401 128.011 162.413 127.888 162.459 127.777C162.506 127.665 162.584 127.57 162.684 127.503C162.785 127.435 162.903 127.4 163.023 127.4C163.185 127.4 163.341 127.464 163.455 127.578C163.57 127.693 163.634 127.848 163.634 128.01Z" fill="white"/>
<path opacity="0.2" d="M155.954 134.22C155.954 134.34 155.918 134.458 155.851 134.559C155.784 134.659 155.689 134.737 155.577 134.784C155.465 134.83 155.343 134.842 155.224 134.818C155.106 134.795 154.997 134.737 154.912 134.651C154.826 134.566 154.768 134.457 154.745 134.339C154.721 134.22 154.733 134.097 154.779 133.986C154.825 133.874 154.904 133.779 155.004 133.712C155.105 133.645 155.223 133.609 155.343 133.609C155.505 133.609 155.661 133.673 155.775 133.788C155.89 133.902 155.954 134.058 155.954 134.22Z" fill="white"/>
<path opacity="0.4" d="M159.794 134.22C159.794 134.34 159.758 134.458 159.691 134.559C159.624 134.659 159.529 134.737 159.417 134.784C159.305 134.83 159.183 134.842 159.064 134.818C158.946 134.795 158.837 134.737 158.752 134.651C158.666 134.566 158.608 134.457 158.585 134.339C158.561 134.22 158.573 134.097 158.619 133.986C158.665 133.874 158.744 133.779 158.844 133.712C158.945 133.645 159.063 133.609 159.183 133.609C159.345 133.609 159.501 133.673 159.615 133.788C159.73 133.902 159.794 134.058 159.794 134.22Z" fill="white"/>
<path opacity="0.2" d="M163.634 134.22C163.634 134.34 163.598 134.458 163.531 134.559C163.464 134.659 163.369 134.737 163.257 134.784C163.145 134.83 163.023 134.842 162.904 134.818C162.786 134.795 162.677 134.737 162.592 134.651C162.506 134.566 162.448 134.457 162.425 134.339C162.401 134.22 162.413 134.097 162.459 133.986C162.506 133.874 162.584 133.779 162.684 133.712C162.785 133.645 162.903 133.609 163.023 133.609C163.185 133.609 163.341 133.673 163.455 133.788C163.57 133.902 163.634 134.058 163.634 134.22Z" fill="white"/>
<path opacity="0.4" d="M155.954 140.429C155.954 140.55 155.918 140.668 155.851 140.768C155.784 140.868 155.689 140.947 155.577 140.993C155.465 141.039 155.343 141.051 155.224 141.028C155.106 141.004 154.997 140.946 154.912 140.861C154.826 140.775 154.768 140.666 154.745 140.548C154.721 140.429 154.733 140.307 154.779 140.195C154.825 140.084 154.904 139.988 155.004 139.921C155.105 139.854 155.223 139.818 155.343 139.818C155.505 139.818 155.661 139.883 155.775 139.997C155.89 140.112 155.954 140.267 155.954 140.429Z" fill="white"/>
<path opacity="0.2" d="M159.794 140.429C159.794 140.55 159.758 140.668 159.691 140.768C159.624 140.868 159.529 140.947 159.417 140.993C159.305 141.039 159.183 141.051 159.064 141.028C158.946 141.004 158.837 140.946 158.752 140.861C158.666 140.775 158.608 140.666 158.585 140.548C158.561 140.429 158.573 140.307 158.619 140.195C158.665 140.084 158.744 139.988 158.844 139.921C158.945 139.854 159.063 139.818 159.183 139.818C159.345 139.818 159.501 139.883 159.615 139.997C159.73 140.112 159.794 140.267 159.794 140.429Z" fill="white"/>
<path opacity="0.2" d="M163.634 140.429C163.634 140.55 163.598 140.668 163.531 140.768C163.464 140.868 163.369 140.947 163.257 140.993C163.145 141.039 163.023 141.051 162.904 141.028C162.786 141.004 162.677 140.946 162.592 140.861C162.506 140.775 162.448 140.666 162.425 140.548C162.401 140.429 162.413 140.307 162.459 140.195C162.506 140.084 162.584 139.988 162.684 139.921C162.785 139.854 162.903 139.818 163.023 139.818C163.185 139.818 163.341 139.883 163.455 139.997C163.57 140.112 163.634 140.267 163.634 140.429Z" fill="white"/>
<path opacity="0.2" d="M155.954 146.638C155.954 146.759 155.918 146.877 155.851 146.977C155.784 147.078 155.689 147.156 155.577 147.202C155.465 147.248 155.343 147.26 155.224 147.237C155.106 147.213 154.997 147.155 154.912 147.07C154.826 146.984 154.768 146.876 154.745 146.757C154.721 146.639 154.733 146.516 154.779 146.404C154.825 146.293 154.904 146.198 155.004 146.13C155.105 146.063 155.223 146.028 155.343 146.028C155.505 146.028 155.661 146.092 155.775 146.206C155.89 146.321 155.954 146.476 155.954 146.638Z" fill="white"/>
<path opacity="0.4" d="M159.794 146.638C159.794 146.759 159.758 146.877 159.691 146.977C159.624 147.078 159.529 147.156 159.417 147.202C159.305 147.248 159.183 147.26 159.064 147.237C158.946 147.213 158.837 147.155 158.752 147.07C158.666 146.984 158.608 146.876 158.585 146.757C158.561 146.639 158.573 146.516 158.619 146.404C158.665 146.293 158.744 146.198 158.844 146.13C158.945 146.063 159.063 146.028 159.183 146.028C159.345 146.028 159.501 146.092 159.615 146.206C159.73 146.321 159.794 146.476 159.794 146.638Z" fill="white"/>
<path opacity="0.4" d="M163.634 146.638C163.634 146.759 163.598 146.877 163.531 146.977C163.464 147.078 163.369 147.156 163.257 147.202C163.145 147.248 163.023 147.26 162.904 147.237C162.786 147.213 162.677 147.155 162.592 147.07C162.506 146.984 162.448 146.876 162.425 146.757C162.401 146.639 162.413 146.516 162.459 146.404C162.506 146.293 162.584 146.198 162.684 146.13C162.785 146.063 162.903 146.028 163.023 146.028C163.185 146.028 163.341 146.092 163.455 146.206C163.57 146.321 163.634 146.476 163.634 146.638Z" fill="white"/>
<path opacity="0.4" d="M155.954 152.832C155.954 152.953 155.918 153.071 155.851 153.171C155.784 153.272 155.689 153.35 155.577 153.396C155.465 153.442 155.343 153.454 155.224 153.431C155.106 153.407 154.997 153.349 154.912 153.264C154.826 153.178 154.768 153.07 154.745 152.951C154.721 152.833 154.733 152.71 154.779 152.598C154.825 152.487 154.904 152.391 155.004 152.324C155.105 152.257 155.223 152.221 155.343 152.221C155.505 152.221 155.661 152.286 155.775 152.4C155.89 152.515 155.954 152.67 155.954 152.832Z" fill="white"/>
<path opacity="0.2" d="M159.794 152.832C159.794 152.953 159.758 153.071 159.691 153.171C159.624 153.272 159.529 153.35 159.417 153.396C159.305 153.442 159.183 153.454 159.064 153.431C158.946 153.407 158.837 153.349 158.752 153.264C158.666 153.178 158.608 153.07 158.585 152.951C158.561 152.833 158.573 152.71 158.619 152.598C158.665 152.487 158.744 152.391 158.844 152.324C158.945 152.257 159.063 152.221 159.183 152.221C159.345 152.221 159.501 152.286 159.615 152.4C159.73 152.515 159.794 152.67 159.794 152.832Z" fill="white"/>
<path opacity="0.4" d="M163.634 152.832C163.634 152.953 163.598 153.071 163.531 153.171C163.464 153.272 163.369 153.35 163.257 153.396C163.145 153.442 163.023 153.454 162.904 153.431C162.786 153.407 162.677 153.349 162.592 153.264C162.506 153.178 162.448 153.07 162.425 152.951C162.401 152.833 162.413 152.71 162.459 152.598C162.506 152.487 162.584 152.391 162.684 152.324C162.785 152.257 162.903 152.221 163.023 152.221C163.185 152.221 163.341 152.286 163.455 152.4C163.57 152.515 163.634 152.67 163.634 152.832Z" fill="white"/>
<path opacity="0.3" d="M151.546 117.27H138.236V157.375H151.546V117.27Z" fill="black"/>
<path d="M176.698 67.2999H137.837C136.789 67.2999 135.94 68.1492 135.94 69.1968V101.269C135.94 102.316 136.789 103.165 137.837 103.165H176.698C177.745 103.165 178.595 102.316 178.595 101.269V69.1968C178.595 68.1492 177.745 67.2999 176.698 67.2999Z" fill="#FB8181"/>
<path opacity="0.5" d="M176.698 67.2999H137.837C136.789 67.2999 135.94 68.1492 135.94 69.1968V101.269C135.94 102.316 136.789 103.165 137.837 103.165H176.698C177.745 103.165 178.595 102.316 178.595 101.269V69.1968C178.595 68.1492 177.745 67.2999 176.698 67.2999Z" fill="white"/>
<path d="M137.718 67.2999H176.847C177.311 67.2999 177.755 67.484 178.083 67.8116C178.41 68.1393 178.595 68.5837 178.595 69.0471V73.5552H135.936V69.0778C135.936 68.844 135.982 68.6125 136.072 68.3965C136.161 68.1806 136.293 67.9844 136.458 67.8193C136.624 67.6541 136.82 67.5232 137.036 67.4341C137.252 67.345 137.484 67.2994 137.718 67.2999Z" fill="#FB8181"/>
<path opacity="0.5" d="M176.183 70.8826C176.184 71.1533 176.104 71.4181 175.954 71.6435C175.804 71.8689 175.591 72.0447 175.341 72.1486C175.091 72.2526 174.816 72.28 174.55 72.2274C174.285 72.1747 174.041 72.0444 173.849 71.853C173.658 71.6616 173.528 71.4177 173.475 71.1521C173.422 70.8866 173.45 70.6114 173.554 70.3615C173.658 70.1115 173.834 69.8981 174.059 69.7481C174.284 69.5982 174.549 69.5186 174.82 69.5194C174.999 69.5194 175.176 69.5546 175.342 69.6231C175.507 69.6916 175.657 69.792 175.784 69.9186C175.91 70.0452 176.011 70.1955 176.079 70.3609C176.148 70.5263 176.183 70.7035 176.183 70.8826Z" fill="white"/>
<path opacity="0.5" d="M172.305 70.8825C172.305 71.1531 172.226 71.4178 172.076 71.6431C171.926 71.8684 171.713 72.0442 171.463 72.1483C171.214 72.2523 170.939 72.2799 170.673 72.2276C170.408 72.1753 170.164 72.0454 169.972 71.8544C169.781 71.6634 169.65 71.4198 169.597 71.1545C169.544 70.8892 169.571 70.6142 169.674 70.3641C169.778 70.1141 169.953 69.9004 170.178 69.75C170.403 69.5996 170.667 69.5193 170.938 69.5193C171.299 69.5193 171.647 69.6628 171.903 69.9184C172.159 70.1739 172.304 70.5207 172.305 70.8825Z" fill="white"/>
<path opacity="0.5" d="M168.422 70.8826C168.423 71.1533 168.344 71.4181 168.194 71.6435C168.044 71.8689 167.83 72.0447 167.58 72.1486C167.33 72.2526 167.055 72.28 166.79 72.2274C166.524 72.1747 166.28 72.0444 166.089 71.853C165.897 71.6616 165.767 71.4177 165.714 71.1521C165.662 70.8866 165.689 70.6114 165.793 70.3615C165.897 70.1115 166.073 69.8981 166.298 69.7481C166.524 69.5982 166.788 69.5186 167.059 69.5194C167.238 69.5194 167.415 69.5546 167.581 69.6231C167.746 69.6916 167.897 69.792 168.023 69.9186C168.15 70.0452 168.25 70.1955 168.319 70.3609C168.387 70.5263 168.422 70.7035 168.422 70.8826Z" fill="white"/>
<path opacity="0.6" d="M167.416 78.7814H145.54V80.0563H167.416V78.7814Z" fill="white"/>
<path opacity="0.6" d="M161.533 81.5386H145.878V82.8135H161.533V81.5386Z" fill="#263238"/>
<path d="M173.33 78.7814H169.025V80.0563H173.33V78.7814Z" fill="#FB8181"/>
<path d="M144.019 78.7814H139.715V80.0563H144.019V78.7814Z" fill="#FB8181"/>
<path d="M167.416 84.5991H145.54V85.874H167.416V84.5991Z" fill="#FB8181"/>
<path opacity="0.6" d="M173.33 84.5991H169.025V85.874H173.33V84.5991Z" fill="white"/>
<path d="M144.019 84.5991H139.715V85.874H144.019V84.5991Z" fill="#FB8181"/>
<path d="M167.416 96.718H145.54V97.9929H167.416V96.718Z" fill="#FB8181"/>
<path opacity="0.6" d="M173.33 96.718H169.025V97.9929H173.33V96.718Z" fill="white"/>
<path d="M167.416 87.6634H145.54V88.9383H167.416V87.6634Z" fill="#FB8181"/>
<path opacity="0.6" d="M173.33 87.6634H169.025V88.9383H173.33V87.6634Z" fill="#263238"/>
<path opacity="0.6" d="M144.019 87.6634H139.715V88.9383H144.019V87.6634Z" fill="#263238"/>
<path d="M173.645 81.5885H163.246V82.8634H173.645V81.5885Z" fill="#FB8181"/>
<path opacity="0.6" d="M161.196 90.336H145.54V91.6109H161.196V90.336Z" fill="white"/>
<path d="M173.307 90.3859H162.908V91.6608H173.307V90.3859Z" fill="#FB8181"/>
<path opacity="0.6" d="M153.366 93.1047H145.54V94.3796H153.366V93.1047Z" fill="#263238"/>
<path d="M60.9946 30.5856H22.1338C21.0861 30.5856 20.2368 31.4349 20.2368 32.4826V64.5543C20.2368 65.6019 21.0861 66.4512 22.1338 66.4512H60.9946C62.0422 66.4512 62.8915 65.6019 62.8915 64.5543V32.4826C62.8915 31.4349 62.0422 30.5856 60.9946 30.5856Z" fill="#FB8181"/>
<path opacity="0.5" d="M60.9946 30.5856H22.1338C21.0861 30.5856 20.2368 31.4349 20.2368 32.4826V64.5543C20.2368 65.6019 21.0861 66.4512 22.1338 66.4512H60.9946C62.0422 66.4512 62.8915 65.6019 62.8915 64.5543V32.4826C62.8915 31.4349 62.0422 30.5856 60.9946 30.5856Z" fill="white"/>
<path d="M22.0109 30.5856H61.1443C61.6077 30.5856 62.0521 30.7697 62.3798 31.0974C62.7075 31.425 62.8915 31.8694 62.8915 32.3328V36.841H20.2368V32.3636C20.2368 31.8927 20.4236 31.441 20.7562 31.1077C21.0888 30.7744 21.54 30.5866 22.0109 30.5856Z" fill="#FB8181"/>
<path opacity="0.5" d="M60.48 34.176C60.4792 34.4472 60.3978 34.712 60.2461 34.9368C60.0943 35.1616 59.8792 35.3361 59.628 35.4383C59.3768 35.5405 59.1009 35.5656 58.8353 35.5105C58.5698 35.4554 58.3267 35.3226 58.1368 35.129C57.947 34.9354 57.819 34.6896 57.7692 34.423C57.7194 34.1565 57.75 33.8811 57.8571 33.632C57.9642 33.3829 58.143 33.1712 58.3708 33.024C58.5985 32.8767 58.8649 32.8006 59.136 32.8051C59.4956 32.8102 59.8385 32.9571 60.0903 33.2139C60.342 33.4706 60.4821 33.8164 60.48 34.176Z" fill="white"/>
<path opacity="0.5" d="M56.6016 34.176C56.6016 34.4464 56.5214 34.7107 56.3712 34.9355C56.221 35.1603 56.0075 35.3355 55.7577 35.439C55.5079 35.5425 55.2331 35.5695 54.9679 35.5168C54.7027 35.464 54.4591 35.3338 54.2679 35.1426C54.0767 34.9515 53.9466 34.7079 53.8938 34.4427C53.8411 34.1775 53.8681 33.9027 53.9716 33.6529C54.0751 33.4031 54.2503 33.1896 54.4751 33.0394C54.6999 32.8891 54.9642 32.809 55.2346 32.809C55.4142 32.8085 55.5922 32.8435 55.7583 32.912C55.9244 32.9805 56.0753 33.0812 56.2024 33.2082C56.3294 33.3353 56.4301 33.4862 56.4986 33.6523C56.5671 33.8183 56.6021 33.9963 56.6016 34.176Z" fill="white"/>
<path opacity="0.5" d="M52.7194 34.176C52.7194 34.4465 52.6391 34.711 52.4887 34.9359C52.3383 35.1608 52.1246 35.336 51.8746 35.4393C51.6246 35.5427 51.3495 35.5695 51.0842 35.5165C50.8189 35.4634 50.5754 35.3328 50.3843 35.1413C50.1933 34.9497 50.0634 34.7058 50.0111 34.4403C49.9588 34.1749 49.9864 33.8999 50.0905 33.6502C50.1945 33.4005 50.3703 33.1872 50.5956 33.0375C50.821 32.8877 51.0856 32.8082 51.3562 32.809C51.5355 32.809 51.7131 32.8444 51.8787 32.9131C52.0444 32.9818 52.1948 33.0826 52.3215 33.2096C52.4481 33.3366 52.5484 33.4873 52.6167 33.6532C52.685 33.819 52.7199 33.9967 52.7194 34.176Z" fill="white"/>
<path d="M55.0042 50.5805C53.591 48.6835 50.6918 47.7581 48.7603 49.129C48.4645 47.0081 47.3382 45.0916 45.6293 43.8011C43.9204 42.5106 41.7689 41.9518 39.648 42.2477C37.5271 42.5435 35.6106 43.6698 34.3201 45.3787C33.0296 47.0876 32.4709 49.2391 32.7667 51.36C30.9005 50.9338 28.8499 51.3831 27.6403 53.3107C26.0659 55.8067 28.105 58.2835 28.105 58.2835L39.049 58.3488V54.336H37.6512C37.5958 54.3366 37.5414 54.3208 37.495 54.2905C37.4486 54.2602 37.4122 54.2168 37.3905 54.1659C37.3687 54.1149 37.3625 54.0587 37.3727 54.0042C37.3829 53.9497 37.409 53.8995 37.4477 53.8598L39.0566 52.1779L40.9229 50.2311C40.9494 50.2039 40.981 50.1823 41.016 50.1675C41.0509 50.1528 41.0885 50.1452 41.1264 50.1452C41.1643 50.1452 41.2019 50.1528 41.2368 50.1675C41.2718 50.1823 41.3034 50.2039 41.3299 50.2311L43.1923 52.1779L44.8051 53.8598C44.8421 53.9001 44.8666 53.9502 44.8758 54.0041C44.885 54.058 44.8785 54.1133 44.857 54.1636C44.8355 54.2138 44.8 54.2568 44.7547 54.2874C44.7094 54.318 44.6562 54.3349 44.6016 54.336H43.2V58.368L54.8506 58.4333C56.5094 56.5287 56.4211 52.4775 55.0042 50.5805Z" fill="white"/>
<path d="M38.5997 158.442C38.5997 158.442 72.0537 150.605 73.6435 157.571C75.9168 167.52 51.7785 174.209 38.9222 173.802C26.0659 173.395 38.5997 158.442 38.5997 158.442Z" fill="#263238"/>
<path opacity="0.2" d="M38.5997 158.442C38.5997 158.442 72.0537 150.605 73.6435 157.571C75.9168 167.52 51.7785 174.209 38.9222 173.802C26.0659 173.395 38.5997 158.442 38.5997 158.442Z" fill="black"/>
<path opacity="0.7" d="M62.6688 159.721L46.9555 169.705L49.0521 172.685C49.0521 172.685 47.9501 174.325 45.8457 169.294L55.5648 162.87C55.5648 162.87 52.5235 162.566 52.6003 162.102C52.7309 161.334 59.4125 159.832 62.4614 159.164C62.535 159.144 62.6137 159.151 62.6818 159.186C62.7499 159.221 62.8022 159.28 62.8284 159.352C62.8546 159.424 62.8528 159.503 62.8232 159.574C62.7936 159.644 62.7384 159.701 62.6688 159.733V159.721Z" fill="black"/>
<path opacity="0.7" d="M46.3872 168.576L49.1136 172.992C45.7488 173.576 42.3369 173.845 38.9222 173.795C37.8017 173.787 36.691 173.585 35.639 173.199L34.6829 171.448L36.7411 167.301L46.3872 168.576Z" fill="black"/>
<path d="M51.5866 166.825L44.6016 171.256L45.8534 174.647L54.0557 170.961L51.5866 166.825Z" fill="#B97964"/>
<path d="M40.7539 172.393L41.4413 174.831C41.5966 174.871 41.7397 174.949 41.8577 175.057C41.9757 175.166 42.0648 175.302 42.1171 175.453C42.1384 175.819 42.0968 176.185 41.9942 176.536L43.8297 183.26C44.0528 183.201 44.2681 183.116 44.471 183.007C44.6676 182.867 44.8468 182.705 45.0048 182.523C45.504 181.951 45.5577 181.117 45.5769 180.503C45.6077 179.474 46.199 176.46 46.199 176.46C46.4089 175.88 46.7742 175.37 47.255 174.985C47.4422 174.849 47.5965 174.673 47.7062 174.47C47.8159 174.266 47.8782 174.041 47.8886 173.81C47.8762 173.682 47.8362 173.559 47.7714 173.449C47.7066 173.338 47.6186 173.243 47.5134 173.17C47.4081 173.097 47.2883 173.048 47.1621 173.026C47.036 173.003 46.9065 173.009 46.7827 173.042L46.1145 173.123C45.8772 172.954 45.7125 172.702 45.6533 172.417C45.5942 172.132 45.6451 171.836 45.7958 171.587C45.7958 171.587 46.1798 170.124 45.5769 170.369C45.2237 170.508 43.6838 171.199 42.4473 171.706L41.6486 172.032L40.7539 172.393Z" fill="#263238"/>
<path d="M45.9418 178.065C45.9503 178.046 45.9526 178.025 45.9485 178.005C45.9444 177.985 45.9339 177.967 45.9187 177.953C45.7731 177.816 45.5923 177.722 45.3965 177.681C45.289 177.681 45.2429 177.83 45.3466 177.853C45.5195 177.889 45.68 177.97 45.8112 178.088C45.8187 178.098 45.8285 178.106 45.8398 178.112C45.8512 178.118 45.8637 178.121 45.8765 178.121C45.8892 178.121 45.9018 178.118 45.9131 178.112C45.9245 178.106 45.9343 178.098 45.9418 178.088V178.065Z" fill="#FB8181"/>
<path d="M46.08 177.469C46.0885 177.451 46.0909 177.43 46.0867 177.41C46.0826 177.39 46.0722 177.372 46.057 177.358C45.9114 177.221 45.7305 177.128 45.5347 177.089C45.4272 177.066 45.3773 177.235 45.4848 177.258C45.6578 177.293 45.8182 177.374 45.9494 177.492C45.9583 177.502 45.9694 177.509 45.9816 177.513C45.9938 177.517 46.0069 177.519 46.0197 177.517C46.0325 177.515 46.0447 177.51 46.0552 177.502C46.0657 177.495 46.0742 177.485 46.08 177.473V177.469Z" fill="#FB8181"/>
<path d="M46.1952 176.866C46.2029 176.847 46.2049 176.826 46.2008 176.805C46.1967 176.785 46.1867 176.766 46.1721 176.751C46.0237 176.617 45.8422 176.524 45.646 176.482C45.5424 176.459 45.4924 176.628 45.6 176.651C45.7721 176.688 45.9312 176.77 46.0608 176.89C46.0699 176.899 46.0812 176.906 46.0936 176.91C46.1061 176.914 46.1192 176.914 46.1321 176.912C46.1449 176.91 46.157 176.905 46.1673 176.897C46.1776 176.889 46.1859 176.878 46.1913 176.866H46.1952Z" fill="#FB8181"/>
<path opacity="0.2" d="M41.6486 172.032L40.7539 172.416L41.4413 174.854C41.5966 174.894 41.7397 174.972 41.8577 175.08C41.9757 175.189 42.0648 175.325 42.1171 175.477C42.1384 175.842 42.0968 176.208 41.9942 176.559L43.8297 183.283C44.0528 183.225 44.2681 183.139 44.471 183.03C44.5709 182.957 44.6592 182.884 44.7437 182.811L41.783 171.994L41.6486 172.032Z" fill="white"/>
<path d="M47.1283 177.358C47.0626 177.357 46.9971 177.351 46.9325 177.339C46.623 177.225 46.3328 177.065 46.0723 176.863L45.9955 176.813L46.08 176.778C46.309 176.688 46.5454 176.617 46.7866 176.567C47.0329 176.514 47.289 176.529 47.5277 176.609C47.596 176.617 47.66 176.647 47.7097 176.694C47.7595 176.742 47.7923 176.804 47.8032 176.872C47.8141 176.94 47.8024 177.01 47.77 177.071C47.7376 177.131 47.6862 177.18 47.6237 177.208C47.4784 177.309 47.3051 177.362 47.1283 177.358ZM46.199 176.84C46.4318 177.014 46.6911 177.151 46.967 177.243C47.0717 177.267 47.18 177.269 47.2856 177.25C47.3912 177.231 47.4918 177.191 47.5814 177.132C47.6247 177.106 47.6604 177.07 47.6847 177.026C47.709 176.982 47.7211 176.932 47.7197 176.882C47.6966 176.782 47.5814 176.725 47.5123 176.698C47.2881 176.624 47.0483 176.611 46.8173 176.659C46.6063 176.701 46.3994 176.761 46.199 176.84Z" fill="#FB8181"/>
<path d="M46.0492 176.89V176.801C46.0147 176.472 46.0289 176.14 46.0915 175.814C46.1316 175.7 46.194 175.595 46.2751 175.506C46.3562 175.416 46.4543 175.343 46.5638 175.292C46.6201 175.256 46.6864 175.239 46.753 175.244C46.8196 175.248 46.8831 175.273 46.9344 175.316C46.9857 175.359 47.022 175.417 47.0382 175.481C47.0545 175.546 47.0497 175.614 47.0246 175.676C46.9698 175.923 46.849 176.15 46.6752 176.333C46.5083 176.511 46.3258 176.675 46.1299 176.82L46.0492 176.89ZM46.7443 175.354C46.6928 175.354 46.6419 175.364 46.5945 175.384C46.497 175.43 46.4096 175.496 46.3378 175.576C46.2659 175.657 46.2108 175.751 46.176 175.853C46.1169 176.133 46.1026 176.421 46.1337 176.705C46.3002 176.578 46.4557 176.437 46.5984 176.283C46.7579 176.111 46.8703 175.901 46.9248 175.672C46.9394 175.626 46.9424 175.577 46.9337 175.53C46.925 175.482 46.9048 175.438 46.8748 175.4C46.8576 175.383 46.8372 175.37 46.8147 175.361C46.7923 175.353 46.7683 175.349 46.7443 175.35V175.354Z" fill="#FB8181"/>
<path d="M52.4198 137.157C52.4198 137.157 53.6409 148.032 53.9558 148.616C55.0617 150.589 62.3769 153.992 62.3769 153.992L66.1056 153.224L68.7936 155.455L67.031 156.833L64.9651 156.065C63.8371 156.267 62.6933 156.367 61.5475 156.365C59.6275 156.365 50.3309 154.011 48.7795 151.419C47.2281 148.827 46.5177 136.827 46.5177 136.827L52.4198 137.157Z" fill="#B97964"/>
<path d="M46.3526 141.431C46.3526 141.431 43.488 131.881 47.0592 129.227C50.6304 126.574 53.4681 139.711 53.4681 139.711L46.3526 141.431Z" fill="#FB8181"/>
<path opacity="0.3" d="M46.3526 141.431C46.3526 141.431 43.488 131.881 47.0592 129.227C50.6304 126.574 53.4681 139.711 53.4681 139.711L46.3526 141.431Z" fill="white"/>
<path d="M48.6144 158.903L48.5875 146.231L48.2342 128.797L40.8345 127.261L34.3065 126.973L26.9184 130.387L26.7456 134.642C26.7456 134.642 27.5904 154.172 27.5443 154.764C27.4867 155.485 25.3824 160.013 25.3824 160.013C34.7443 162.148 48.768 159.548 48.6144 158.903Z" fill="#FB8181"/>
<path opacity="0.3" d="M48.6144 158.903L48.5875 146.231L48.2342 128.797L40.8345 127.261L34.3065 126.973L26.9184 130.387L26.7456 134.642C26.7456 134.642 27.5904 154.172 27.5443 154.764C27.4867 155.485 25.3824 160.013 25.3824 160.013C34.7443 162.148 48.768 159.548 48.6144 158.903Z" fill="white"/>
<path d="M38.016 129.792C38.016 129.792 39.8323 131.409 40.7616 129.32L41.2454 129.704C41.2454 129.704 41.1993 131.259 40.3161 131.777C40.5312 132.641 44.2176 145.198 44.8781 151.526L43.872 154.095L41.184 151.98C41.184 151.98 39.8861 141.124 39.4406 131.896C38.9195 131.722 38.4432 131.435 38.0451 131.056C37.6469 130.677 37.3368 130.215 37.1366 129.704L38.016 129.792Z" fill="#FB8181"/>
<path opacity="0.2" d="M40.3584 130.015L41.9328 131.24L42.19 127.565L41.6908 127.457L41.2723 129.934L40.5273 129.5L40.3584 130.015Z" fill="black"/>
<path opacity="0.2" d="M32.7744 127.707C32.7475 127.707 36.48 132.273 36.48 132.273L37.7472 131.305L38.6189 130.568L38.8454 130.291L33.9034 126.858C33.6764 127.1 33.4326 127.326 33.1738 127.534C33.0354 127.579 32.9017 127.637 32.7744 127.707Z" fill="black"/>
<path d="M33.0393 127.63L34.8441 126.017L39.7862 130.644L38.496 130.188L36.6105 131.635L33.0393 127.63Z" fill="#FB8181"/>
<path d="M39.7862 130.644C39.6787 130.433 40.1702 126.232 40.1702 126.232L41.9213 127.43C41.8291 127.411 41.7677 130.886 41.7101 130.886C41.6525 130.886 40.5581 129.696 40.5581 129.696L39.7862 130.644Z" fill="#FB8181"/>
<path opacity="0.2" d="M48.4838 140.916L48.0998 132.753L49.9277 140.567L48.4838 140.916Z" fill="black"/>
<path opacity="0.2" d="M32.64 142.107C32.8704 142.061 34.0339 141.677 34.0339 141.677L31.4496 134.465L35.0093 142.464L32.8704 143.317L32.64 142.107Z" fill="black"/>
<path opacity="0.3" d="M33.0393 127.63L34.8441 126.017L39.7862 130.644L38.496 130.188L36.6105 131.635L33.0393 127.63Z" fill="white"/>
<path opacity="0.3" d="M39.7862 130.644C39.6787 130.433 40.1702 126.232 40.1702 126.232L41.9213 127.43C41.8291 127.411 41.7677 130.886 41.7101 130.886C41.6525 130.886 40.5581 129.696 40.5581 129.696L39.7862 130.644Z" fill="white"/>
<path opacity="0.3" d="M42.5894 137.395L43.4189 141.469L45.8342 142.345L47.4662 140.92L47.1667 137.073L42.5894 137.395Z" fill="white"/>
<path d="M40.0819 130.291L39.3139 130.475C39.3139 130.475 39.287 130.525 39.3139 130.495C39.3408 130.464 38.8953 131.942 38.8953 131.942C39.0182 132.054 39.4291 132.764 39.4752 132.753C39.5213 132.741 40.5389 132.645 40.5389 132.645L40.9229 131.57L40.0819 130.291Z" fill="#FB8181"/>
<path opacity="0.2" d="M40.0819 130.291L39.3139 130.475C39.3139 130.475 39.287 130.525 39.3139 130.495C39.3408 130.464 38.8953 131.942 38.8953 131.942C39.0182 132.054 39.4291 132.764 39.4752 132.753C39.5213 132.741 40.5389 132.645 40.5389 132.645L40.9229 131.57L40.0819 130.291Z" fill="black"/>
<path d="M31.6454 136.124C31.6454 136.124 33.4579 148.197 34.5062 149.326C36.2765 151.246 45.0508 156.296 45.0508 156.296L49.4323 154.76C49.5821 154.71 49.7418 154.697 49.8976 154.722C50.0535 154.748 50.2008 154.811 50.327 154.906L53.3222 157.21L53.038 157.452C52.9764 157.503 52.9011 157.536 52.8214 157.545C52.7416 157.555 52.6608 157.541 52.5888 157.505L52.1241 157.275L52.6425 157.782L52.4813 157.924C52.3986 157.992 52.3007 158.04 52.1958 158.063C52.0908 158.086 51.982 158.083 51.8784 158.054L50.5382 157.693L51.7747 158.519C51.6353 158.633 51.4703 158.712 51.2938 158.749C51.1172 158.786 50.9344 158.779 50.7609 158.73L48.8025 158.173C47.4652 158.478 46.1051 158.672 44.736 158.753C42.432 158.895 31.5379 155.09 29.5065 152.306C27.4752 149.522 25.3824 137.929 25.3824 137.929L31.6454 136.124Z" fill="#B97964"/>
<path d="M25.847 144.157C25.847 144.157 23.1322 133.213 26.7034 130.56C30.2746 127.907 33.8112 141.754 33.8112 141.754L25.847 144.157Z" fill="#FB8181"/>
<path opacity="0.3" d="M25.847 144.157C25.847 144.157 23.1322 133.213 26.7034 130.56C30.2746 127.907 33.8112 141.754 33.8112 141.754L25.847 144.157Z" fill="white"/>
<path d="M49.2211 115.849C49.4487 115.825 49.66 115.719 49.8166 115.552C49.9732 115.385 50.0647 115.168 50.0745 114.939C50.0842 114.71 50.0116 114.486 49.8698 114.306C49.728 114.126 49.5265 114.003 49.3018 113.96L47.1859 113.748C47.2858 115.108 47.3869 116.466 47.4893 117.823C47.8962 117.946 48.3304 117.946 48.7373 117.823C48.94 117.758 49.1249 117.647 49.2769 117.499C49.429 117.35 49.544 117.168 49.6128 116.966C49.6765 116.763 49.6728 116.544 49.6023 116.343C49.5317 116.141 49.398 115.968 49.2211 115.849Z" fill="#263238"/>
<path d="M41.1302 123.686L36.5798 117.961C36.5798 117.961 36.5798 117.961 36.5798 117.98C36.5798 118.522 36.5798 119.132 36.5184 119.8C36.5184 119.8 36.0269 119.566 36.0269 119.574C35.831 122.546 34.656 127.638 34.7097 128.06L39.4905 130.437L40.3622 129.565L40.5312 127.645C40.0435 126.417 40.4966 125.004 41.1302 123.686Z" fill="#B97964"/>
<path opacity="0.2" d="M40.4467 125.618L37.5705 123.345C37.4976 124.497 38.1043 126.321 40.4121 127.265C40.2871 126.722 40.299 126.156 40.4467 125.618Z" fill="black"/>
<path d="M37.5513 115.123C36.6105 118.963 36.2534 120.826 37.5513 123.345C39.5289 127.131 44.3635 127.162 46.4448 123.656C48.3149 120.503 49.5437 114.735 46.2912 112.113C45.5707 111.537 44.7164 111.153 43.8076 110.996C42.8988 110.838 41.9651 110.914 41.0931 111.214C40.2212 111.514 39.4393 112.03 38.8201 112.714C38.2008 113.397 37.7644 114.226 37.5513 115.123Z" fill="#B97964"/>
<path d="M38.3616 109.893C39.5136 107.973 42.5856 107.662 43.7107 109.179C43.8758 109.405 42.0557 109.459 42.263 109.448L41.1955 112.485C40.9843 112.366 40.4621 112.485 40.0205 113.115C40.0205 113.115 39.3331 117.293 37.1673 118.46C35.0438 115.526 35.2857 109.901 38.3616 109.893Z" fill="#263238"/>
<path d="M35.0784 117.811C35.083 118.304 35.1851 118.79 35.3789 119.243C35.5727 119.696 35.8542 120.106 36.2073 120.449C37.1635 121.359 38.2694 120.653 38.5344 119.432C38.7686 118.33 38.5574 116.525 37.3478 116.079C36.1382 115.634 35.0784 116.59 35.0784 117.811Z" fill="#B97964"/>
<path d="M42.7661 118.353C42.647 118.737 42.7661 119.121 43.008 119.19C43.2499 119.259 43.5648 119.013 43.6877 118.629C43.8106 118.245 43.6877 117.861 43.4458 117.788C43.2038 117.715 42.889 117.965 42.7661 118.353Z" fill="#263238"/>
<path d="M46.56 119.585C46.441 119.969 46.56 120.353 46.8019 120.422C47.0438 120.491 47.3626 120.246 47.4816 119.862C47.6006 119.478 47.4816 119.094 47.2397 119.021C46.9978 118.948 46.6829 119.197 46.56 119.585Z" fill="#263238"/>
<path d="M45.2237 118.552C45.2237 118.552 45.7075 120.315 45.9264 121.359C45.9393 121.418 45.9392 121.479 45.9262 121.538C45.9132 121.597 45.8875 121.652 45.8509 121.7C45.8144 121.748 45.7679 121.787 45.7146 121.815C45.6613 121.843 45.6025 121.859 45.5424 121.862C45.1639 121.854 44.7933 121.752 44.4633 121.567L45.2237 118.552Z" fill="#A24E3F"/>
<path d="M42.3629 116.029C42.3887 116.051 42.4195 116.065 42.4524 116.071C42.4854 116.077 42.5193 116.075 42.551 116.064C42.7719 115.974 43.0108 115.936 43.2487 115.954C43.4867 115.972 43.7172 116.045 43.9219 116.168C43.963 116.197 44.0139 116.21 44.064 116.203C44.1142 116.195 44.1596 116.169 44.1907 116.129C44.2197 116.088 44.2314 116.038 44.2236 115.988C44.2157 115.939 44.1887 115.894 44.1485 115.864C43.893 115.703 43.6024 115.604 43.3012 115.577C42.9999 115.551 42.6966 115.596 42.4166 115.711C42.3704 115.729 42.333 115.764 42.3122 115.809C42.2914 115.854 42.2889 115.906 42.3053 115.953C42.3177 115.983 42.3375 116.009 42.3629 116.029Z" fill="#263238"/>
<path d="M48.576 117.827C48.6129 117.819 48.6473 117.801 48.6758 117.777C48.7107 117.741 48.7304 117.694 48.7304 117.644C48.7304 117.595 48.7107 117.547 48.6758 117.512C48.4817 117.283 48.2357 117.105 47.9584 116.991C47.6812 116.878 47.3807 116.832 47.0822 116.859C47.0322 116.867 46.9875 116.895 46.9574 116.936C46.9273 116.977 46.9142 117.027 46.9209 117.078C46.9247 117.102 46.9332 117.126 46.9461 117.147C46.9589 117.168 46.9758 117.186 46.9958 117.201C47.0157 117.216 47.0384 117.226 47.0625 117.232C47.0865 117.238 47.1115 117.239 47.136 117.235C47.3727 117.214 47.6109 117.251 47.8299 117.344C48.0488 117.436 48.2417 117.581 48.3916 117.765C48.4146 117.79 48.4436 117.809 48.4758 117.82C48.5081 117.831 48.5426 117.833 48.576 117.827Z" fill="#263238"/>
<path d="M42.4474 122.354C42.5801 122.461 42.7214 122.558 42.8698 122.642C42.8934 122.654 42.9204 122.657 42.9463 122.652C42.9721 122.646 42.9953 122.632 43.0118 122.611C43.0231 122.586 43.0247 122.558 43.0161 122.531C43.0076 122.505 42.9897 122.483 42.9658 122.469C42.5848 122.265 42.2575 121.973 42.0106 121.618C41.7637 121.263 41.6042 120.855 41.545 120.426C41.5421 120.4 41.5293 120.376 41.5094 120.359C41.4894 120.342 41.4637 120.333 41.4374 120.334C41.4136 120.333 41.3903 120.341 41.3724 120.357C41.3545 120.373 41.3434 120.395 41.3414 120.419C41.3396 120.426 41.3396 120.434 41.3414 120.442C41.3862 120.819 41.5073 121.183 41.6975 121.512C41.8876 121.84 42.1428 122.127 42.4474 122.354Z" fill="#263238"/>
<path d="M51.1296 112.973C50.8685 112.205 49.9545 111.882 49.1443 111.821C49.3968 111.791 49.6295 111.67 49.7975 111.479C49.9655 111.288 50.057 111.042 50.0544 110.788C50.0387 110.533 49.9664 110.285 49.8429 110.062C49.7193 109.839 49.5476 109.646 49.3401 109.498C48.9798 109.218 48.5534 109.035 48.1021 108.968C47.6508 108.901 47.1898 108.951 46.7635 109.114C46.8395 109.068 46.8974 108.998 46.9275 108.915C46.9576 108.831 46.958 108.74 46.9286 108.657C46.8659 108.49 46.7532 108.346 46.6061 108.246C46.1665 107.93 45.6326 107.772 45.0918 107.8C44.5511 107.827 44.0357 108.037 43.6301 108.396C43.4762 107.931 43.1549 107.541 42.7289 107.301C42.3029 107.061 41.8027 106.989 41.3261 107.098C40.4083 107.336 38.6803 107.52 38.4153 109.866C38.2177 109.678 37.9822 109.534 37.7244 109.444C37.4667 109.354 37.1927 109.319 36.9208 109.344C36.6488 109.368 36.3851 109.45 36.1473 109.584C35.9095 109.718 35.7031 109.901 35.5417 110.121C35.3804 110.342 35.2679 110.594 35.2117 110.861C35.1555 111.128 35.157 111.404 35.216 111.671C35.275 111.937 35.3902 112.188 35.5538 112.407C35.7175 112.625 35.9259 112.807 36.1651 112.938C35.9484 112.867 35.7127 112.881 35.5059 112.977C35.2991 113.074 35.1367 113.245 35.0515 113.457C34.9767 113.672 34.9608 113.904 35.0054 114.128C35.0499 114.353 35.1533 114.561 35.3049 114.732C35.6151 115.066 36.0151 115.303 36.4569 115.415C36.867 115.548 37.3067 115.562 37.7241 115.453C37.9308 115.395 38.1185 115.283 38.2687 115.13C38.4189 114.976 38.5264 114.786 38.5805 114.578C38.6266 114.797 38.7513 114.991 38.931 115.124C39.1108 115.257 39.3331 115.32 39.5558 115.3C39.7777 115.266 39.9833 115.164 40.1433 115.007C40.3033 114.849 40.4095 114.646 40.4467 114.424C40.4758 114.203 40.4456 113.977 40.3593 113.771C40.273 113.564 40.1335 113.384 39.9552 113.249C40.087 113.36 40.242 113.44 40.4089 113.484C40.5757 113.527 40.7502 113.532 40.9193 113.499C41.0884 113.466 41.248 113.395 41.3862 113.292C41.5244 113.189 41.6377 113.056 41.7177 112.904C42.0578 113.646 42.64 114.252 43.3689 114.62C43.7369 114.794 44.1519 114.843 44.5501 114.758C44.9483 114.673 45.3077 114.46 45.5731 114.152C45.8012 114.445 46.0702 114.703 46.3718 114.92C46.525 115.026 46.6993 115.098 46.8828 115.131C47.0663 115.164 47.2548 115.158 47.4355 115.112C47.6138 115.058 47.7674 114.943 47.8693 114.787C47.9711 114.631 48.0147 114.444 47.9923 114.259C48.2768 114.514 48.6208 114.693 48.9926 114.779C49.3644 114.866 49.752 114.857 50.1197 114.755C50.4777 114.634 50.7786 114.385 50.9649 114.057C51.1512 113.728 51.2099 113.342 51.1296 112.973Z" fill="#263238"/>
<path d="M55.0771 158.066H41.1917C41.1917 158.596 41.7869 159.022 42.5165 159.018H65.1302C65.8521 159.018 66.432 158.584 66.4281 158.058L55.0771 158.066Z" fill="#263238"/>
<path d="M65.3376 158.976H52.6656C52.5729 158.983 52.4812 158.953 52.4096 158.894C52.3381 158.834 52.2922 158.75 52.2816 158.657C52.2824 158.623 52.2889 158.589 52.3008 158.557L57.9456 145.624C58.0396 145.429 58.1891 145.265 58.3755 145.154C58.562 145.042 58.777 144.988 58.9939 144.998H71.6659C71.7583 144.991 71.8499 145.019 71.9216 145.078C71.9932 145.137 72.0393 145.221 72.0499 145.313C72.0496 145.349 72.0418 145.384 72.0269 145.417L66.3859 158.354C66.2906 158.548 66.1406 158.711 65.9544 158.821C65.7682 158.932 65.5539 158.985 65.3376 158.976Z" fill="#263238"/>
<path opacity="0.7" d="M71.6659 144.995H58.9939C58.777 144.985 58.5619 145.038 58.3755 145.15C58.1891 145.261 58.0396 145.425 57.9456 145.621L52.5158 158.066H41.1917C41.1917 158.596 41.7869 159.022 42.5165 159.018H65.1302C65.3452 159.018 65.5579 158.975 65.7561 158.892C65.8951 158.851 66.0237 158.781 66.1331 158.686C66.2425 158.592 66.33 158.474 66.3897 158.342L72.0307 145.405C72.0456 145.373 72.0535 145.338 72.0537 145.302C72.0413 145.21 71.9939 145.127 71.9216 145.07C71.8493 145.013 71.7577 144.986 71.6659 144.995Z" fill="white"/>
<path d="M64.0435 151.883C63.767 152.502 63.2141 152.928 62.7994 152.843C62.3846 152.759 62.2733 152.191 62.5421 151.569C62.8109 150.947 63.3677 150.528 63.7824 150.616C64.1971 150.705 64.32 151.246 64.0435 151.883Z" fill="white"/>
<g opacity="0.3">
<path d="M57.9264 145.62L52.4966 158.066H53.0841L58.9747 145.01C58.7595 144.998 58.5456 145.05 58.3593 145.159C58.1731 145.267 58.0226 145.428 57.9264 145.62Z" fill="black"/>
</g>
<path d="M58.5792 172.416L66.7507 173.729L68.0602 170.362L59.4739 167.681L58.5792 172.416Z" fill="#B97964"/>
<path d="M70.3833 175.43L71.4854 173.149C71.3946 173.017 71.3385 172.864 71.3224 172.704C71.3063 172.545 71.3307 172.383 71.3933 172.235C71.5161 171.959 72.2035 171.506 72.2035 171.506L75.2755 165.254C75.0699 165.149 74.8518 165.071 74.6265 165.02C74.3867 164.993 74.1445 164.993 73.9046 165.02C73.1558 165.124 72.5645 165.707 72.1421 166.172C71.4355 166.94 68.9933 168.787 68.9933 168.787C68.4516 169.082 67.839 169.222 67.223 169.19C66.993 169.166 66.7606 169.195 66.5436 169.275C66.3266 169.355 66.1307 169.484 65.9712 169.651C65.8941 169.754 65.8406 169.873 65.8144 169.999C65.7882 170.125 65.79 170.255 65.8197 170.381C65.8493 170.506 65.9061 170.623 65.9861 170.724C66.066 170.825 66.1671 170.907 66.2822 170.964L66.839 171.348C66.9061 171.631 66.8643 171.928 66.7219 172.18C66.5796 172.433 66.3471 172.623 66.071 172.712C66.071 172.712 64.8038 173.549 65.4297 173.768C65.783 173.898 67.3958 174.405 68.6553 174.843L69.4733 175.127L70.3833 175.43Z" fill="#263238"/>
<path d="M70.272 167.743C70.2522 167.75 70.2354 167.764 70.2243 167.782C70.2131 167.8 70.2083 167.822 70.2106 167.843C70.2334 168.041 70.3075 168.23 70.4256 168.392C70.4909 168.48 70.6406 168.392 70.5754 168.296C70.4682 168.155 70.4018 167.988 70.3834 167.812C70.3834 167.799 70.3802 167.786 70.3738 167.774C70.3674 167.763 70.3582 167.753 70.3471 167.746C70.3359 167.739 70.3231 167.735 70.31 167.735C70.2968 167.734 70.2837 167.737 70.272 167.743Z" fill="#FB8181"/>
<path d="M69.7613 168.096C69.7422 168.104 69.7262 168.118 69.7158 168.136C69.7054 168.154 69.7012 168.175 69.7037 168.196C69.7224 168.395 69.7955 168.585 69.9149 168.745C69.9802 168.833 70.1299 168.745 70.0646 168.649C69.9585 168.508 69.8934 168.341 69.8765 168.165C69.8749 168.153 69.8705 168.141 69.8637 168.13C69.8569 168.12 69.8479 168.111 69.8372 168.104C69.8266 168.097 69.8146 168.093 69.8021 168.092C69.7896 168.09 69.777 168.092 69.7651 168.096H69.7613Z" fill="#FB8181"/>
<path d="M69.2736 168.476C69.2545 168.484 69.2385 168.498 69.2281 168.516C69.2177 168.534 69.2135 168.555 69.216 168.576C69.2361 168.775 69.3104 168.965 69.431 169.125C69.4925 169.21 69.6422 169.125 69.5769 169.029C69.473 168.887 69.4081 168.72 69.3888 168.545C69.3879 168.533 69.384 168.52 69.3775 168.509C69.3709 168.498 69.3617 168.489 69.3508 168.482C69.34 168.475 69.3276 168.471 69.3149 168.47C69.3021 168.469 69.2893 168.471 69.2774 168.476H69.2736Z" fill="#FB8181"/>
<path opacity="0.2" d="M71.3933 172.236C71.5161 171.959 72.2035 171.506 72.2035 171.506L75.2755 165.254C75.0699 165.149 74.8518 165.071 74.6265 165.02C74.5037 165.02 74.3885 165.02 74.2771 165.02L69.3235 175.081L69.4617 175.127L70.3757 175.446L71.4777 173.165C71.3855 173.03 71.3292 172.874 71.3144 172.711C71.2997 172.548 71.3268 172.385 71.3933 172.236Z" fill="white"/>
<path d="M69.3849 168.645L69.3004 168.614L69.3196 168.568L69.3004 168.611C69.0689 168.53 68.8453 168.429 68.6323 168.307C68.4121 168.183 68.2302 168.001 68.1062 167.781C68.0671 167.726 68.0433 167.661 68.0372 167.594C68.0312 167.526 68.043 167.458 68.0716 167.397C68.1117 167.341 68.1671 167.298 68.2311 167.273C68.2952 167.248 68.3651 167.241 68.4326 167.255C68.5523 167.271 68.6673 167.312 68.771 167.374C68.8746 167.436 68.9646 167.518 69.0355 167.616C69.1907 167.906 69.302 168.218 69.3657 168.541L69.3849 168.645ZM68.3788 167.363C68.3358 167.359 68.2925 167.367 68.253 167.384C68.2134 167.401 68.1788 167.428 68.1523 167.462C68.1361 167.508 68.1311 167.556 68.1378 167.603C68.1445 167.651 68.1626 167.696 68.1907 167.735C68.3072 167.94 68.4771 168.11 68.6822 168.227C68.8637 168.331 69.0538 168.42 69.2505 168.492C69.1955 168.21 69.0971 167.94 68.9587 167.689C68.8956 167.602 68.8154 167.528 68.723 167.472C68.6306 167.417 68.5279 167.381 68.4211 167.366L68.3788 167.363Z" fill="#FB8181"/>
<path d="M68.2061 169.451C68.1228 169.45 68.04 169.437 67.9603 169.413C67.8946 169.394 67.8351 169.359 67.7879 169.309C67.7406 169.26 67.7074 169.199 67.6915 169.133C67.6924 169.068 67.7098 169.004 67.7421 168.948C67.7743 168.891 67.8203 168.844 67.8758 168.81C68.0804 168.663 68.3202 168.573 68.5709 168.549C68.8162 168.528 69.0628 168.528 69.3082 168.549H69.4003L69.3427 168.618C69.1543 168.894 68.9237 169.139 68.6592 169.344C68.5189 169.415 68.3635 169.452 68.2061 169.451ZM68.9011 168.63C68.7949 168.624 68.6886 168.624 68.5824 168.63C68.3485 168.652 68.1246 168.735 67.9334 168.872C67.8927 168.897 67.8584 168.931 67.8331 168.972C67.8078 169.012 67.7922 169.058 67.7875 169.106C67.8001 169.155 67.8257 169.199 67.8615 169.234C67.8974 169.269 67.9422 169.294 67.991 169.306C68.2011 169.365 68.4262 169.339 68.617 169.233C68.8461 169.062 69.047 168.855 69.2122 168.622L68.9011 168.63Z" fill="#FB8181"/>
<path d="M27.8822 168.691C26.1197 165.884 22.1222 158.277 30.2169 156.787C38.3117 155.297 65.2992 168.134 65.2992 168.134L63.5904 173.299L38.4576 169.344C38.4576 169.344 41.9136 173.933 37.7241 173.725C31.6569 173.119 30.2016 171.667 27.8822 168.691Z" fill="#263238"/>
<path opacity="0.7" d="M39.0528 169.478L32.1408 167.309C32.1408 167.309 37.9238 170.845 40.0473 171.268L39.0528 169.478Z" fill="black"/>
<path d="M13.44 104.003H27.4944C28.1055 104.003 28.6915 104.245 29.1236 104.677C29.5557 105.109 29.7984 105.695 29.7984 106.307V113.894C29.7984 114.505 29.5557 115.091 29.1236 115.524C28.6915 115.956 28.1055 116.198 27.4944 116.198H24.1306L24.1075 118.502L21.577 116.198H13.44C12.8289 116.198 12.2429 115.956 11.8108 115.524C11.3787 115.091 11.136 114.505 11.136 113.894V106.303C11.137 105.692 11.3802 105.107 11.8122 104.676C12.2442 104.245 12.8296 104.003 13.44 104.003Z" fill="#FB8181"/>
<path d="M18.7354 108.899L16.512 109.932L18.7277 110.968V111.802L15.7671 110.365V109.501L18.7277 108.065L18.7354 108.899Z" fill="white"/>
<path d="M25.4784 109.501V110.365L22.5178 111.802V110.976L24.7334 109.939L22.5178 108.906V108.073L25.4784 109.501Z" fill="white"/>
<path d="M21.1469 107.482L19.703 112.474H20.425L21.8688 107.482H21.1469Z" fill="white"/>
<path d="M24.2496 103.484H17.0342C17.0088 103.484 16.9844 103.474 16.9664 103.456C16.9483 103.438 16.9382 103.414 16.9382 103.388C16.9382 103.363 16.9483 103.338 16.9664 103.32C16.9844 103.302 17.0088 103.292 17.0342 103.292H24.2496C24.2751 103.292 24.2995 103.302 24.3175 103.32C24.3355 103.338 24.3456 103.363 24.3456 103.388C24.3456 103.414 24.3355 103.438 24.3175 103.456C24.2995 103.474 24.2751 103.484 24.2496 103.484Z" fill="#FB8181"/>
<path d="M26.2426 103.488H25.0906C25.0651 103.488 25.0407 103.478 25.0227 103.46C25.0047 103.442 24.9946 103.417 24.9946 103.392C24.9946 103.367 25.0047 103.342 25.0227 103.324C25.0407 103.306 25.0651 103.296 25.0906 103.296H26.2426C26.268 103.296 26.2924 103.306 26.3105 103.324C26.3285 103.342 26.3386 103.367 26.3386 103.392C26.3386 103.417 26.3285 103.442 26.3105 103.46C26.2924 103.478 26.268 103.488 26.2426 103.488Z" fill="#FB8181"/>
</g>
<defs>
<clipPath id="clip0_5_4260">
<rect width="192" height="192" fill="white"/>
</clipPath>
</defs>
</svg>
