<svg width="212" height="220" viewBox="0 0 212 220" fill="none" xmlns="http://www.w3.org/2000/svg">
<path d="M33.5773 151.652C21.2333 134.088 -7.00227 82.6926 49.9123 67.3361C106.827 51.9796 88.6072 8.11276 130.185 8.75864C171.762 9.40452 212.568 44.229 207.555 77.2749C202.542 110.321 156.921 107.694 144.167 141.834C131.414 175.974 55.2962 182.549 33.5773 151.652Z" fill="#A0B5FF"/>
<path opacity="0.7" d="M33.5773 151.821C21.2333 134.257 -7.00224 82.8613 49.9123 67.5048C106.827 52.1483 88.6073 8.28148 130.185 8.92254C171.762 9.5636 212.568 44.3977 207.555 77.4437C202.542 110.49 156.945 107.863 144.167 141.998C131.39 176.133 55.2963 182.717 33.5773 151.821Z" fill="white"/>
<path d="M175.411 72.5851C177.443 72.107 179.288 71.0368 180.713 69.5099L184.111 70.6619L185.803 67.7265L183.113 65.3599C183.717 63.3576 183.717 61.2215 183.113 59.2192L185.803 56.8526L184.111 53.9124L180.713 55.0644C179.289 53.5372 177.444 52.4684 175.411 51.9941L174.707 48.4755H173.01" stroke="#263238" stroke-width="0.482" stroke-miterlimit="10"/>
<path d="M171.304 48.4755L170.6 51.9941C168.568 52.4695 166.722 53.5381 165.298 55.0644L161.924 53.9124L160.232 56.8526L162.922 59.2192C162.318 61.2215 162.318 63.3576 162.922 65.3599L160.218 67.7265L161.91 70.6619L165.284 69.5099C166.709 71.0359 168.554 72.1059 170.586 72.5851L171.289 76.0989H174.663L175.367 72.5851" stroke="#263238" stroke-width="0.482" stroke-miterlimit="10"/>
<path d="M172.793 67.9435C166.749 67.5193 165.616 58.718 171.656 57.1708" stroke="#263238" stroke-width="0.482" stroke-miterlimit="10"/>
<path d="M176.606 58.3854C179.614 61.1377 178.664 66.5168 174.678 67.7314" stroke="#263238" stroke-width="0.482" stroke-miterlimit="10"/>
<path d="M173.714 57.0502C174.24 57.1126 174.753 57.254 175.237 57.4696" stroke="#263238" stroke-width="0.482" stroke-miterlimit="10"/>
<path d="M193.418 75.2602L194.132 74.4071C195.46 74.7713 196.867 74.7361 198.176 74.3058L199.776 76.0362" stroke="#263238" stroke-width="0.482" stroke-miterlimit="10"/>
<path d="M190.782 61.904L191.095 62.7475C190.116 63.7154 189.445 64.9514 189.167 66.2998L186.868 66.8252L186.921 69.0569L189.249 69.4617C189.423 70.124 189.692 70.7572 190.049 71.3416C190.406 71.9258 190.848 72.4538 191.36 72.9081L190.661 75.1638L192.623 76.229" stroke="#263238" stroke-width="0.482" stroke-miterlimit="10"/>
<path d="M199.776 76.0363L201.67 74.8698L200.86 72.6526C201.838 71.6837 202.509 70.4481 202.788 69.1003L205.087 68.5797L205.03 66.3481L202.706 65.9432C202.359 64.611 201.624 63.4117 200.595 62.4969L201.294 60.2411L199.332 59.1759L197.814 60.9882C196.488 60.6192 195.081 60.6544 193.775 61.0894L192.17 59.3591L190.266 60.5255" stroke="#263238" stroke-width="0.482" stroke-miterlimit="10"/>
<path d="M199.491 66.8782C200.152 69.6449 197.52 72.3104 194.739 71.1873C192.088 70.1125 191.702 66.2227 194.165 64.7285" stroke="#263238" stroke-width="0.482" stroke-miterlimit="10"/>
<path d="M197.216 64.3911C197.771 64.5878 198.268 64.919 198.662 65.3551" stroke="#263238" stroke-width="0.482" stroke-miterlimit="10"/>
<path d="M44.4512 121.672L48.0759 125.292C47.9221 125.939 47.9364 126.614 48.1176 127.254C48.2988 127.894 48.6407 128.476 49.1109 128.947C49.5811 129.417 50.1638 129.759 50.8036 129.94C51.4433 130.121 52.1188 130.135 52.7657 129.982L50.4907 127.711L51.1077 125.407L53.4068 124.791L55.6818 127.066C55.8356 126.419 55.8213 125.743 55.6401 125.103C55.4589 124.464 55.117 123.881 54.6468 123.411C54.1766 122.941 53.5939 122.599 52.9541 122.417C52.3144 122.236 51.6389 122.222 50.992 122.376L47.6565 119.04" stroke="#263238" stroke-width="0.482" stroke-miterlimit="10"/>
<path d="M42.3594 113.758L39.0384 110.437C39.1858 109.791 39.1665 109.118 38.9823 108.482C38.7982 107.846 38.4552 107.267 37.9857 106.8C37.5162 106.333 36.9355 105.993 36.2984 105.812C35.6613 105.631 34.9886 105.615 34.3437 105.766L36.6188 108.041L36.0018 110.34L33.7027 110.957L31.4276 108.658C31.2753 109.305 31.2908 109.981 31.4728 110.62C31.6548 111.26 31.9971 111.843 32.4673 112.313C32.9376 112.783 33.5201 113.126 34.1598 113.307C34.7994 113.489 35.475 113.505 36.1223 113.353L39.4433 116.674" stroke="#263238" stroke-width="0.482" stroke-miterlimit="10"/>
<path d="M46.09 117.252L50.7221 112.62C50.9508 112.393 51.2124 112.201 51.4981 112.051L52.4283 111.569L55.8023 107.713L53.696 105.641L49.84 109.015L49.358 109.945C49.2112 110.232 49.0192 110.494 48.7892 110.721L45.1164 114.399" stroke="#263238" stroke-width="0.482" stroke-miterlimit="10"/>
<path d="M33.7605 129.384C34.0749 129.584 34.4502 129.665 34.8192 129.614C35.1882 129.563 35.5271 129.382 35.7752 129.104L43.8005 121.079C43.9922 120.907 44.137 120.688 44.2213 120.445C44.3056 120.201 44.3267 119.94 44.2825 119.686L45.6755 118.293L45.7623 118.375C45.8098 118.423 45.8665 118.462 45.9289 118.488C45.9914 118.514 46.0585 118.527 46.1262 118.527C46.1939 118.527 46.261 118.514 46.3234 118.488C46.3859 118.462 46.4426 118.423 46.4901 118.375C46.5852 118.278 46.6384 118.147 46.6384 118.011C46.6384 117.875 46.5852 117.745 46.4901 117.647L43.7427 114.9C43.6455 114.803 43.514 114.749 43.3771 114.75C43.2401 114.75 43.109 114.805 43.0125 114.902C42.916 114.999 42.862 115.131 42.8624 115.268C42.8629 115.405 42.9177 115.536 43.0149 115.633L43.1016 115.714L41.7087 117.107C41.4546 117.063 41.1935 117.084 40.9498 117.168C40.706 117.252 40.4878 117.397 40.3157 117.589L32.3 125.649C32.1155 125.813 31.9729 126.019 31.884 126.249C31.7951 126.48 31.7626 126.728 31.7891 126.974" stroke="#263238" stroke-width="0.482" stroke-miterlimit="10"/>
<path d="M32.1121 127.822C32.3002 128.123 32.5235 128.399 32.7772 128.647C33.0599 128.945 33.3846 129.199 33.7412 129.403" stroke="#263238" stroke-width="0.482" stroke-miterlimit="10"/>
<path d="M34.5799 126.969L35.9825 125.567" stroke="#263238" stroke-width="0.482" stroke-miterlimit="10"/>
<path d="M37.8768 123.672L43.8054 117.618" stroke="#263238" stroke-width="0.482" stroke-miterlimit="10"/>
<path d="M167.236 21.3004H38.7347V104.783H167.236V21.3004Z" fill="white"/>
<path d="M167.236 21.3004H38.7347V104.783H52.3223H73.8628H167.236V21.3004Z" fill="#BFBFBF"/>
<path d="M167.236 21.3004H38.7347V32.2225H167.236V21.3004Z" fill="white"/>
<path d="M167.236 21.3004H38.7347V32.2225H167.236V21.3004Z" fill="#757575"/>
<path d="M163.298 23.0403H158.382C157.684 23.0403 157.119 23.6057 157.119 24.3031V29.2195C157.119 29.917 157.684 30.4824 158.382 30.4824H163.298C163.995 30.4824 164.561 29.917 164.561 29.2195V24.3031C164.561 23.6057 163.995 23.0403 163.298 23.0403Z" fill="white"/>
<path d="M154.169 23.0403H149.272C148.569 23.0403 147.999 23.61 147.999 24.3128V29.2099C147.999 29.9127 148.569 30.4824 149.272 30.4824H154.169C154.872 30.4824 155.441 29.9127 155.441 29.2099V24.3128C155.441 23.61 154.872 23.0403 154.169 23.0403Z" fill="white"/>
<path d="M145.059 23.0403H140.143C139.445 23.0403 138.88 23.6057 138.88 24.3031V29.2195C138.88 29.917 139.445 30.4824 140.143 30.4824H145.059C145.756 30.4824 146.322 29.917 146.322 29.2195V24.3031C146.322 23.6057 145.756 23.0403 145.059 23.0403Z" fill="white"/>
<path d="M159.9 37.0424H46.0708C44.6812 37.0424 43.5547 38.1689 43.5547 39.5585V97.4467C43.5547 98.8362 44.6812 99.9627 46.0708 99.9627H159.9C161.289 99.9627 162.416 98.8362 162.416 97.4467V39.5585C162.416 38.1689 161.289 37.0424 159.9 37.0424Z" fill="#263238" stroke="#263238" stroke-width="0.482" stroke-linecap="round" stroke-linejoin="round"/>
<path d="M159.244 28.3568L162.435 25.166" stroke="#263238" stroke-width="0.482" stroke-linecap="round" stroke-linejoin="round"/>
<path d="M159.244 25.166L162.435 28.3568" stroke="#263238" stroke-width="0.482" stroke-linecap="round" stroke-linejoin="round"/>
<path d="M153.846 26.077H149.59V28.887H153.846V26.077Z" stroke="#263238" stroke-width="0.482" stroke-linecap="round" stroke-linejoin="round"/>
<path d="M144.727 28.887H140.47" stroke="#263238" stroke-width="0.482" stroke-linecap="round" stroke-linejoin="round"/>
<path d="M154.945 79.8151H146.495C146.24 79.8151 145.995 79.7136 145.814 79.5328C145.633 79.352 145.531 79.1068 145.531 78.8511C145.531 78.5955 145.633 78.3503 145.814 78.1695C145.995 77.9887 146.24 77.8871 146.495 77.8871H154.945C155.201 77.8871 155.446 77.9887 155.627 78.1695C155.807 78.3503 155.909 78.5955 155.909 78.8511C155.909 79.1068 155.807 79.352 155.627 79.5328C155.446 79.7136 155.201 79.8151 154.945 79.8151Z" fill="#757575"/>
<path d="M154.945 86.486H131.361C131.105 86.486 130.86 86.3844 130.679 86.2036C130.498 86.0229 130.397 85.7777 130.397 85.522C130.397 85.2663 130.498 85.0211 130.679 84.8403C130.86 84.6595 131.105 84.558 131.361 84.558H154.945C155.201 84.558 155.446 84.6595 155.627 84.8403C155.807 85.0211 155.909 85.2663 155.909 85.522C155.909 85.7777 155.807 86.0229 155.627 86.2036C155.446 86.3844 155.201 86.486 154.945 86.486Z" fill="#757575"/>
<path d="M154.945 93.1521H102.985C102.73 93.1521 102.484 93.0506 102.304 92.8698C102.123 92.689 102.021 92.4438 102.021 92.1881C102.021 91.9325 102.123 91.6873 102.304 91.5065C102.484 91.3257 102.73 91.2241 102.985 91.2241H154.945C155.201 91.2241 155.446 91.3257 155.627 91.5065C155.807 91.6873 155.909 91.9325 155.909 92.1881C155.909 92.4438 155.807 92.689 155.627 92.8698C155.446 93.0506 155.201 93.1521 154.945 93.1521Z" fill="#757575"/>
<path d="M52.4717 73.1491H48.5338C48.2781 73.1491 48.0329 73.0475 47.8521 72.8667C47.6713 72.6859 47.5698 72.4407 47.5698 72.1851C47.5698 71.9294 47.6713 71.6842 47.8521 71.5034C48.0329 71.3226 48.2781 71.2211 48.5338 71.2211H52.4717C52.7274 71.2211 52.9726 71.3226 53.1534 71.5034C53.3341 71.6842 53.4357 71.9294 53.4357 72.1851C53.4357 72.4407 53.3341 72.6859 53.1534 72.8667C52.9726 73.0475 52.7274 73.1491 52.4717 73.1491Z" fill="#BFBFBF"/>
<path d="M52.4717 79.8151H48.5338C48.2781 79.8151 48.0329 79.7136 47.8521 79.5328C47.6713 79.352 47.5698 79.1068 47.5698 78.8511C47.5698 78.5955 47.6713 78.3503 47.8521 78.1695C48.0329 77.9887 48.2781 77.8871 48.5338 77.8871H52.4717C52.7274 77.8871 52.9726 77.9887 53.1534 78.1695C53.3341 78.3503 53.4357 78.5955 53.4357 78.8511C53.4357 79.1068 53.3341 79.352 53.1534 79.5328C52.9726 79.7136 52.7274 79.8151 52.4717 79.8151Z" fill="#BFBFBF"/>
<path d="M52.4717 86.486H48.5338C48.2781 86.486 48.0329 86.3844 47.8521 86.2036C47.6713 86.0229 47.5698 85.7777 47.5698 85.522C47.5698 85.2663 47.6713 85.0211 47.8521 84.8403C48.0329 84.6595 48.2781 84.558 48.5338 84.558H52.4717C52.7274 84.558 52.9726 84.6595 53.1534 84.8403C53.3341 85.0211 53.4357 85.2663 53.4357 85.522C53.4357 85.7777 53.3341 86.0229 53.1534 86.2036C52.9726 86.3844 52.7274 86.486 52.4717 86.486Z" fill="#BFBFBF"/>
<path d="M52.4717 93.1521H48.5338C48.2781 93.1521 48.0329 93.0506 47.8521 92.8698C47.6713 92.689 47.5698 92.4438 47.5698 92.1881C47.5698 91.9325 47.6713 91.6873 47.8521 91.5065C48.0329 91.3257 48.2781 91.2241 48.5338 91.2241H52.4717C52.7274 91.2241 52.9726 91.3257 53.1534 91.5065C53.3341 91.6873 53.4357 91.9325 53.4357 92.1881C53.4357 92.4438 53.3341 92.689 53.1534 92.8698C52.9726 93.0506 52.7274 93.1521 52.4717 93.1521Z" fill="#BFBFBF"/>
<g opacity="0.7">
<path d="M52.4717 73.1491H48.5338C48.2781 73.1491 48.0329 73.0475 47.8521 72.8667C47.6713 72.6859 47.5698 72.4407 47.5698 72.1851C47.5698 71.9294 47.6713 71.6842 47.8521 71.5034C48.0329 71.3226 48.2781 71.2211 48.5338 71.2211H52.4717C52.7274 71.2211 52.9726 71.3226 53.1534 71.5034C53.3341 71.6842 53.4357 71.9294 53.4357 72.1851C53.4357 72.4407 53.3341 72.6859 53.1534 72.8667C52.9726 73.0475 52.7274 73.1491 52.4717 73.1491Z" fill="#BFBFBF"/>
</g>
<g opacity="0.7">
<path d="M52.4717 79.8151H48.5338C48.2781 79.8151 48.0329 79.7136 47.8521 79.5328C47.6713 79.352 47.5698 79.1068 47.5698 78.8511C47.5698 78.5955 47.6713 78.3503 47.8521 78.1695C48.0329 77.9887 48.2781 77.8871 48.5338 77.8871H52.4717C52.7274 77.8871 52.9726 77.9887 53.1534 78.1695C53.3341 78.3503 53.4357 78.5955 53.4357 78.8511C53.4357 79.1068 53.3341 79.352 53.1534 79.5328C52.9726 79.7136 52.7274 79.8151 52.4717 79.8151Z" fill="#BFBFBF"/>
</g>
<g opacity="0.7">
<path d="M52.4717 86.486H48.5338C48.2781 86.486 48.0329 86.3844 47.8521 86.2036C47.6713 86.0229 47.5698 85.7777 47.5698 85.522C47.5698 85.2663 47.6713 85.0211 47.8521 84.8403C48.0329 84.6595 48.2781 84.558 48.5338 84.558H52.4717C52.7274 84.558 52.9726 84.6595 53.1534 84.8403C53.3341 85.0211 53.4357 85.2663 53.4357 85.522C53.4357 85.7777 53.3341 86.0229 53.1534 86.2036C52.9726 86.3844 52.7274 86.486 52.4717 86.486Z" fill="#BFBFBF"/>
</g>
<g opacity="0.7">
<path d="M52.4717 93.1521H48.5338C48.2781 93.1521 48.0329 93.0506 47.8521 92.8698C47.6713 92.689 47.5698 92.4438 47.5698 92.1881C47.5698 91.9325 47.6713 91.6873 47.8521 91.5065C48.0329 91.3257 48.2781 91.2241 48.5338 91.2241H52.4717C52.7274 91.2241 52.9726 91.3257 53.1534 91.5065C53.3341 91.6873 53.4357 91.9325 53.4357 92.1881C53.4357 92.4438 53.3341 92.689 53.1534 92.8698C52.9726 93.0506 52.7274 93.1521 52.4717 93.1521Z" fill="#BFBFBF"/>
</g>
<path d="M131.361 66.4782H48.5338C48.2781 66.4782 48.0329 66.3766 47.8521 66.1958C47.6713 66.015 47.5698 65.7698 47.5698 65.5142C47.5698 65.2585 47.6713 65.0133 47.8521 64.8325C48.0329 64.6517 48.2781 64.5502 48.5338 64.5502H131.361C131.616 64.5502 131.862 64.6517 132.042 64.8325C132.223 65.0133 132.325 65.2585 132.325 65.5142C132.325 65.7698 132.223 66.015 132.042 66.1958C131.862 66.3766 131.616 66.4782 131.361 66.4782Z" fill="#BFBFBF"/>
<path d="M154.945 53.1461H146.495C146.24 53.1461 145.995 53.0445 145.814 52.8637C145.633 52.6829 145.531 52.4377 145.531 52.1821C145.531 51.9264 145.633 51.6812 145.814 51.5004C145.995 51.3196 146.24 51.2181 146.495 51.2181H154.945C155.201 51.2181 155.446 51.3196 155.627 51.5004C155.807 51.6812 155.909 51.9264 155.909 52.1821C155.909 52.4377 155.807 52.6829 155.627 52.8637C155.446 53.0445 155.201 53.1461 154.945 53.1461Z" fill="#BFBFBF"/>
<path d="M142.962 53.1461H134.894C134.638 53.1461 134.393 53.0445 134.212 52.8637C134.031 52.6829 133.93 52.4377 133.93 52.1821C133.93 51.9264 134.031 51.6812 134.212 51.5004C134.393 51.3196 134.638 51.2181 134.894 51.2181H142.962C143.218 51.2181 143.463 51.3196 143.644 51.5004C143.825 51.6812 143.926 51.9264 143.926 52.1821C143.926 52.4377 143.825 52.6829 143.644 52.8637C143.463 53.0445 143.218 53.1461 142.962 53.1461Z" fill="#BFBFBF"/>
<path d="M131.361 53.1461H48.5338C48.2781 53.1461 48.0329 53.0445 47.8521 52.8637C47.6713 52.6829 47.5698 52.4377 47.5698 52.1821C47.5698 51.9264 47.6713 51.6812 47.8521 51.5004C48.0329 51.3196 48.2781 51.2181 48.5338 51.2181H131.361C131.616 51.2181 131.862 51.3196 132.042 51.5004C132.223 51.6812 132.325 51.9264 132.325 52.1821C132.325 52.4377 132.223 52.6829 132.042 52.8637C131.862 53.0445 131.616 53.1461 131.361 53.1461Z" fill="#BFBFBF"/>
<path d="M154.945 73.1491H146.495C146.24 73.1491 145.995 73.0475 145.814 72.8667C145.633 72.6859 145.531 72.4407 145.531 72.1851C145.531 71.9294 145.633 71.6842 145.814 71.5034C145.995 71.3226 146.24 71.2211 146.495 71.2211H154.945C155.201 71.2211 155.446 71.3226 155.627 71.5034C155.807 71.6842 155.909 71.9294 155.909 72.1851C155.909 72.4407 155.807 72.6859 155.627 72.8667C155.446 73.0475 155.201 73.1491 154.945 73.1491Z" fill="#999999"/>
<path d="M142.962 73.1491H56.8097C56.554 73.1491 56.3088 73.0475 56.1281 72.8667C55.9473 72.6859 55.8457 72.4407 55.8457 72.1851C55.8457 71.9294 55.9473 71.6842 56.1281 71.5034C56.3088 71.3226 56.554 71.2211 56.8097 71.2211H142.962C143.218 71.2211 143.463 71.3226 143.644 71.5034C143.825 71.6842 143.926 71.9294 143.926 72.1851C143.926 72.4407 143.825 72.6859 143.644 72.8667C143.463 73.0475 143.218 73.1491 142.962 73.1491Z" fill="#999999"/>
<path d="M81.5508 79.8151H56.8097C56.554 79.8151 56.3088 79.7136 56.1281 79.5328C55.9473 79.352 55.8457 79.1068 55.8457 78.8511C55.8457 78.5955 55.9473 78.3503 56.1281 78.1695C56.3088 77.9887 56.554 77.8871 56.8097 77.8871H81.5508C81.8064 77.8871 82.0516 77.9887 82.2324 78.1695C82.4132 78.3503 82.5148 78.5955 82.5148 78.8511C82.5148 79.1068 82.4132 79.352 82.2324 79.5328C82.0516 79.7136 81.8064 79.8151 81.5508 79.8151Z" fill="#999999"/>
<path d="M81.5508 86.486H56.8097C56.554 86.486 56.3088 86.3844 56.1281 86.2036C55.9473 86.0229 55.8457 85.7777 55.8457 85.522C55.8457 85.2663 55.9473 85.0211 56.1281 84.8403C56.3088 84.6595 56.554 84.558 56.8097 84.558H81.5508C81.8064 84.558 82.0516 84.6595 82.2324 84.8403C82.4132 85.0211 82.5148 85.2663 82.5148 85.522C82.5148 85.7777 82.4132 86.0229 82.2324 86.2036C82.0516 86.3844 81.8064 86.486 81.5508 86.486Z" fill="#999999"/>
<path d="M81.5508 93.1521H56.8097C56.554 93.1521 56.3088 93.0506 56.1281 92.8698C55.9473 92.689 55.8457 92.4438 55.8457 92.1881C55.8457 91.9325 55.9473 91.6873 56.1281 91.5065C56.3088 91.3257 56.554 91.2241 56.8097 91.2241H81.5508C81.8064 91.2241 82.0516 91.3257 82.2324 91.5065C82.4132 91.6873 82.5148 91.9325 82.5148 92.1881C82.5148 92.4438 82.4132 92.689 82.2324 92.8698C82.0516 93.0506 81.8064 93.1521 81.5508 93.1521Z" fill="#999999"/>
<path d="M65.3026 178.664C65.3026 178.664 62.7769 183.002 63.7698 183.17C64.7627 183.339 66.8498 179.565 66.8498 179.565L72.5615 178.066L68.2572 177.623L65.3026 178.664Z" fill="white" stroke="#263238" stroke-width="0.482" stroke-linecap="round" stroke-linejoin="round"/>
<path opacity="0.3" d="M65.3026 178.664C65.3026 178.664 62.7769 183.002 63.7698 183.17C64.7627 183.339 66.8498 179.565 66.8498 179.565L72.5615 178.066L68.2572 177.623L65.3026 178.664Z" fill="black" stroke="#263238" stroke-width="0.482" stroke-linecap="round" stroke-linejoin="round"/>
<path d="M67.2258 175.695C67.2258 175.695 63.6879 174.856 62.7142 176.514C61.7406 178.172 58.8582 183.093 59.9476 183.652C61.0369 184.211 61.9575 182.399 61.9575 182.399L67.2258 175.695Z" fill="white" stroke="#263238" stroke-width="0.482" stroke-linecap="round" stroke-linejoin="round"/>
<path d="M81.6954 180.736C79.375 181.538 76.9019 181.799 74.4654 181.498L70.4407 182.838C70.4407 182.838 66.9028 184.578 65.2544 183.7C63.6059 182.823 69.4478 180.886 69.4478 180.886C69.4478 180.886 73.3761 179.184 72.2048 178.774C71.0335 178.365 66.5992 178.447 65.7316 179.112C64.864 179.777 62.5745 184.11 60.9116 183.86C59.2487 183.609 61.6056 181.257 62.1985 180.351C62.7913 179.444 64.1265 175.829 66.8064 175.675C69.4863 175.521 78.5528 175.988 78.5528 175.988L89.2001 174.851L91.7113 180.91L81.6954 180.736Z" fill="white" stroke="#263238" stroke-width="0.482" stroke-linecap="round" stroke-linejoin="round"/>
<path d="M87.2529 182.235C87.5496 182.448 87.9069 182.561 88.2722 182.555C88.6375 182.55 88.9915 182.428 89.2821 182.206C89.6029 182.343 89.9569 182.382 90.2998 182.319C90.6428 182.255 90.9594 182.092 91.2101 181.85C91.9861 180.997 92.0536 173.511 89.9039 172.668C89.2821 172.427 87.73 172.451 87.4939 173.318C87.3282 173.251 87.1491 173.224 86.971 173.239C86.7928 173.254 86.6207 173.31 86.4686 173.404C86.3165 173.498 86.1887 173.627 86.0955 173.779C86.0023 173.932 85.9463 174.104 85.9322 174.282C85.7201 175.632 87.0601 176.89 86.6118 180.77C86.5728 181.05 86.6121 181.335 86.7253 181.593C86.8385 181.852 87.0211 182.074 87.2529 182.235Z" fill="#A0B5FF" stroke="#263238" stroke-width="0.482" stroke-linecap="round" stroke-linejoin="round"/>
<path opacity="0.3" d="M87.2529 182.235C87.5496 182.448 87.9069 182.561 88.2722 182.555C88.6375 182.55 88.9915 182.428 89.2821 182.206C89.6029 182.343 89.9569 182.382 90.2998 182.319C90.6428 182.255 90.9594 182.092 91.2101 181.85C91.9861 180.997 92.0536 173.511 89.9039 172.668C89.2821 172.427 87.73 172.451 87.4939 173.318C87.3282 173.251 87.1491 173.224 86.971 173.239C86.7928 173.254 86.6207 173.31 86.4686 173.404C86.3165 173.498 86.1887 173.627 86.0955 173.779C86.0023 173.932 85.9463 174.104 85.9322 174.282C85.7201 175.632 87.0601 176.89 86.6118 180.77C86.5728 181.05 86.6121 181.335 86.7253 181.593C86.8385 181.852 87.0211 182.074 87.2529 182.235Z" fill="black" stroke="#263238" stroke-width="0.482" stroke-linecap="round" stroke-linejoin="round"/>
<path d="M89.7111 180.476C89.7086 178.437 89.275 176.422 88.4386 174.562" stroke="#263238" stroke-width="0.482" stroke-linecap="round" stroke-linejoin="round"/>
<path d="M140.384 177.772C140.027 180.515 139.622 183.484 139.159 186.708H97.7846L97.9822 181.377C95.5096 181.975 90.704 181.609 90.704 181.609V173.728C93.6249 172.075 94.078 172.537 94.078 172.537C94.078 172.537 94.2274 153.306 95.9771 148.505C96.6445 146.697 97.836 145.13 99.3993 144.003C99.8155 143.693 100.252 143.412 100.706 143.16L100.768 143.121C101.25 142.866 101.833 142.596 102.499 142.316L102.682 142.244C109.16 139.598 123.297 136.527 136.47 142.157C137.391 142.552 144.91 146.143 145.551 151.315C145.898 154.289 143.883 169.009 140.384 177.772Z" fill="#A0B5FF"/>
<mask id="mask0_5_4021" style="mask-type:luminance" maskUnits="userSpaceOnUse" x="90" y="138" width="56" height="49">
<path d="M140.384 177.772C140.027 180.515 139.622 183.484 139.159 186.708H97.7846L97.9822 181.377C95.5096 181.975 90.704 181.609 90.704 181.609V173.728C93.6249 172.075 94.078 172.537 94.078 172.537C94.078 172.537 94.2274 153.306 95.9771 148.505C96.6445 146.697 97.836 145.13 99.3993 144.003C99.8155 143.693 100.252 143.412 100.706 143.16L100.768 143.121C101.25 142.866 101.833 142.596 102.499 142.316L102.682 142.244C109.16 139.598 123.297 136.527 136.47 142.157C137.391 142.552 144.91 146.143 145.551 151.315C145.898 154.289 143.883 169.009 140.384 177.772Z" fill="white"/>
</mask>
<g mask="url(#mask0_5_4021)">
<path opacity="0.2" d="M133.828 154.062L129.703 173.212C129.062 172.706 127.215 172.672 124.883 172.894C125.39 172.337 125.811 171.706 126.131 171.024C132.354 157.528 133.708 154.332 133.828 154.062Z" fill="black"/>
<path opacity="0.2" d="M141.367 175.102C140.362 178.915 139.625 182.793 139.159 186.708H97.7846L98.1654 180.568C100.744 180.201 105.27 179.825 109.97 178.991C110.33 180.462 110.368 181.993 110.08 183.479C110.08 183.479 129.11 185.841 135.496 184.303C137.318 183.865 138.967 181.32 140.379 177.815C140.721 176.962 141.049 176.051 141.367 175.102Z" fill="black"/>
<path opacity="0.3" d="M94.5552 172.899C94.5552 172.899 93.6249 172.075 90.6992 173.728V181.609C90.6992 181.609 95.5192 181.44 97.4086 180.413C99.0378 181.421 98.7486 162.975 99.0378 153.041C96.676 153.691 96.488 158.183 96.1217 162.411C95.8191 165.936 95.2959 169.439 94.5552 172.899Z" fill="black"/>
</g>
<path d="M140.384 177.772C140.027 180.515 139.622 183.484 139.159 186.708H97.7846L97.9822 181.377C95.5096 181.975 90.704 181.609 90.704 181.609V173.728C93.6249 172.075 94.078 172.537 94.078 172.537C94.078 172.537 94.2274 153.306 95.9771 148.505C96.6445 146.697 97.836 145.13 99.3993 144.003C99.8155 143.693 100.252 143.412 100.706 143.16L100.768 143.121C101.25 142.866 101.833 142.596 102.499 142.316L102.682 142.244C109.16 139.598 123.297 136.527 136.47 142.157C137.391 142.552 144.91 146.143 145.551 151.315C145.898 154.289 143.883 169.009 140.384 177.772Z" stroke="#263238" stroke-width="0.482" stroke-linecap="round" stroke-linejoin="round"/>
<path d="M145.531 151.329C145.531 151.445 145.56 151.58 145.565 151.73C145.777 155.431 143.763 169.4 140.379 177.815C138.967 181.32 137.318 183.864 135.496 184.303C129.11 185.841 110.08 183.479 110.08 183.479C110.577 180.867 110.069 178.165 108.658 175.911C108.658 175.911 127.341 171.342 129.703 173.212L133.838 154.043" stroke="#263238" stroke-width="0.482" stroke-linecap="round" stroke-linejoin="round"/>
<path d="M131.004 174.258C132.336 174.898 133.477 175.875 134.315 177.092" stroke="#263238" stroke-width="0.482" stroke-linecap="round" stroke-linejoin="round"/>
<path d="M83.4114 174.943C83.4114 174.943 81.6665 174.576 80.958 175.372C80.2494 176.167 77.2128 180.727 78.2395 181.594C79.2662 182.462 81.3532 177.695 81.3532 177.695L83.4114 174.943Z" fill="white" stroke="#263238" stroke-width="0.482" stroke-linecap="round" stroke-linejoin="round"/>
<path d="M86.9106 174.861C86.9106 174.861 83.0546 174.032 82.1726 175.213C81.2905 176.393 76.4271 182.505 79.4637 182.698L84.2837 177.261L86.9106 174.861Z" fill="white" stroke="#263238" stroke-width="0.482" stroke-linecap="round" stroke-linejoin="round"/>
<path d="M95.6541 181.358C95.6541 181.358 91.6776 182.226 90.0629 182.544C88.4482 182.862 85.4502 184.954 83.6764 184.12C81.9027 183.286 89.4604 180.216 89.4604 180.216L92.0632 179.17L95.6541 181.358Z" fill="#BFBFBF" stroke="#263238" stroke-width="0.482" stroke-linecap="round" stroke-linejoin="round"/>
<path d="M98.8739 157.567C98.9317 156.058 98.9848 154.549 99.0426 153.041" stroke="#263238" stroke-width="0.482" stroke-linecap="round" stroke-linejoin="round"/>
<path d="M97.7846 186.708C98.522 177.584 98.7968 159.62 98.7968 159.62" stroke="#263238" stroke-width="0.482" stroke-linecap="round" stroke-linejoin="round"/>
<path d="M110.09 176.437H96.3675C96.3675 176.437 85.7249 173.241 83.956 175.724C82.187 178.206 78.3985 181.99 79.4637 182.698C80.5289 183.407 85.026 178.268 85.026 178.268L88.9302 178.302C88.9302 178.302 85.6189 179.748 84.9103 180.452C84.2018 181.156 82.6642 183.17 83.4643 183.527C84.2644 183.884 86.8962 181.281 86.8962 181.281C86.8962 181.281 90.7955 180.317 91.7403 180.799C94.7716 182.35 98.2785 182.695 101.554 181.763L112.018 183.064L110.09 176.437Z" fill="white" stroke="#263238" stroke-width="0.482" stroke-linecap="round" stroke-linejoin="round"/>
<path d="M132.407 160.68C132.028 158.485 132.014 156.243 132.363 154.043" stroke="#263238" stroke-width="0.482" stroke-linecap="round" stroke-linejoin="round"/>
<path d="M135.516 149.185C135.516 149.185 142.167 140.422 145.531 151.329" stroke="#263238" stroke-width="0.482" stroke-linecap="round" stroke-linejoin="round"/>
<path d="M107.266 175.352C107.501 175.072 107.819 174.875 108.175 174.788C108.53 174.701 108.904 174.73 109.242 174.87C109.518 174.657 109.852 174.531 110.2 174.507C110.548 174.483 110.896 174.562 111.199 174.735C112.163 175.372 114.091 182.602 112.216 183.956C111.676 184.342 110.167 184.703 109.704 183.927C109.56 184.034 109.392 184.105 109.215 184.134C109.037 184.163 108.855 184.151 108.684 184.097C108.513 184.043 108.356 183.949 108.228 183.823C108.1 183.697 108.003 183.543 107.945 183.373C107.405 182.115 108.393 180.568 106.981 176.919C106.881 176.657 106.855 176.372 106.905 176.096C106.955 175.82 107.08 175.563 107.266 175.352Z" fill="#A0B5FF"/>
<mask id="mask1_5_4021" style="mask-type:luminance" maskUnits="userSpaceOnUse" x="106" y="174" width="8" height="11">
<path d="M107.266 175.352C107.501 175.072 107.819 174.875 108.175 174.788C108.53 174.701 108.904 174.73 109.242 174.87C109.518 174.657 109.852 174.531 110.2 174.507C110.548 174.483 110.896 174.562 111.199 174.735C112.163 175.372 114.091 182.602 112.216 183.956C111.676 184.342 110.167 184.703 109.704 183.927C109.56 184.034 109.392 184.105 109.215 184.134C109.037 184.163 108.855 184.151 108.684 184.097C108.513 184.043 108.356 183.949 108.228 183.823C108.1 183.697 108.003 183.543 107.945 183.373C107.405 182.115 108.393 180.568 106.981 176.919C106.881 176.657 106.855 176.372 106.905 176.096C106.955 175.82 107.08 175.563 107.266 175.352Z" fill="white"/>
</mask>
<g mask="url(#mask1_5_4021)">
<path opacity="0.3" d="M107.266 175.352C107.501 175.072 107.819 174.875 108.175 174.788C108.53 174.701 108.904 174.73 109.242 174.87C109.518 174.657 109.852 174.531 110.2 174.507C110.548 174.483 110.896 174.562 111.199 174.735C112.163 175.372 114.091 182.602 112.216 183.956C111.676 184.342 110.167 184.703 109.704 183.927C109.56 184.034 109.392 184.105 109.215 184.134C109.037 184.163 108.855 184.151 108.684 184.097C108.513 184.043 108.356 183.949 108.228 183.823C108.1 183.697 108.003 183.543 107.945 183.373C107.405 182.115 108.393 180.568 106.981 176.919C106.881 176.657 106.855 176.372 106.905 176.096C106.955 175.82 107.08 175.563 107.266 175.352Z" fill="black"/>
</g>
<path d="M107.266 175.352C107.501 175.072 107.819 174.875 108.175 174.788C108.53 174.701 108.904 174.73 109.242 174.87C109.518 174.657 109.852 174.531 110.2 174.507C110.548 174.483 110.896 174.562 111.199 174.735C112.163 175.372 114.091 182.602 112.216 183.956C111.676 184.342 110.167 184.703 109.704 183.927C109.56 184.034 109.392 184.105 109.215 184.134C109.037 184.163 108.855 184.151 108.684 184.097C108.513 184.043 108.356 183.949 108.228 183.823C108.1 183.697 108.003 183.543 107.945 183.373C107.405 182.115 108.393 180.568 106.981 176.919C106.881 176.657 106.855 176.372 106.905 176.096C106.955 175.82 107.08 175.563 107.266 175.352Z" stroke="#263238" stroke-width="0.482" stroke-linecap="round" stroke-linejoin="round"/>
<path d="M110.312 179.107C110.482 180.225 110.495 181.36 110.35 182.481" stroke="#263238" stroke-width="0.482" stroke-linecap="round" stroke-linejoin="round"/>
<path d="M116.356 157.461C116.346 157.646 116.282 157.825 116.17 157.974C116.059 158.123 115.906 158.235 115.73 158.297C115.555 158.359 115.365 158.368 115.185 158.322C115.005 158.276 114.842 158.177 114.718 158.039C114.594 157.9 114.513 157.728 114.487 157.544C114.461 157.36 114.49 157.172 114.57 157.004C114.65 156.837 114.779 156.697 114.939 156.602C115.099 156.507 115.283 156.462 115.469 156.472C115.715 156.492 115.945 156.606 116.11 156.789C116.275 156.973 116.363 157.214 116.356 157.461Z" fill="white" stroke="#263238" stroke-width="0.482" stroke-linecap="round" stroke-linejoin="round"/>
<path d="M115.662 172.017C115.65 172.201 115.584 172.378 115.472 172.525C115.36 172.671 115.208 172.782 115.033 172.842C114.859 172.902 114.67 172.909 114.492 172.862C114.313 172.815 114.152 172.717 114.03 172.579C113.907 172.441 113.828 172.269 113.803 172.087C113.777 171.904 113.806 171.717 113.887 171.551C113.967 171.385 114.094 171.246 114.253 171.152C114.412 171.059 114.596 171.014 114.78 171.024C115.028 171.039 115.261 171.152 115.426 171.338C115.592 171.524 115.676 171.768 115.662 172.017Z" fill="white" stroke="#263238" stroke-width="0.482" stroke-linecap="round" stroke-linejoin="round"/>
<path d="M124.27 139.636L123.586 129.924L113.531 132.276L112.982 140.051C112.351 140.128 111.748 140.219 111.155 140.306L113.613 146.201L118.433 146.832L126.117 139.752C125.514 139.704 124.878 139.665 124.27 139.636Z" fill="white"/>
<mask id="mask2_5_4021" style="mask-type:luminance" maskUnits="userSpaceOnUse" x="111" y="129" width="16" height="18">
<path d="M124.27 139.636L123.586 129.924L113.531 132.276L112.982 140.051C112.351 140.128 111.748 140.219 111.155 140.306L113.613 146.201L118.433 146.832L126.117 139.752C125.514 139.704 124.878 139.665 124.27 139.636Z" fill="white"/>
</mask>
<g mask="url(#mask2_5_4021)">
<path d="M113.382 135.689C113.45 142.6 121.523 140.48 123.76 133.577L123.581 129.924L113.532 132.276L113.382 135.689Z" fill="#263238"/>
</g>
<path d="M124.27 139.636L123.586 129.924L113.531 132.276L112.982 140.051C112.351 140.128 111.748 140.219 111.155 140.306L113.613 146.201L118.433 146.832L126.117 139.752C125.514 139.704 124.878 139.665 124.27 139.636Z" stroke="#263238" stroke-width="0.482" stroke-linecap="round" stroke-linejoin="round"/>
<path d="M107.227 121.725C107.227 121.725 103.554 115.372 103.014 112.022C101.332 101.674 108.798 105.163 108.798 105.163C108.798 105.163 114.1 100.435 120.66 101.264C127.22 102.093 128.975 104.894 133.404 106.614C133.404 106.614 130.079 123.484 125.822 127.273C121.566 131.061 107.227 121.725 107.227 121.725Z" fill="#263238" stroke="#263238" stroke-width="0.482" stroke-linecap="round" stroke-linejoin="round"/>
<path d="M109.16 106.701C109.16 106.701 107.507 102.681 111.7 99.6108" stroke="#263238" stroke-width="0.482" stroke-linecap="round" stroke-linejoin="round"/>
<path d="M116.38 104.286C121.292 102.117 123.485 105.732 128.965 106.696" stroke="#BFBFBF" stroke-width="0.482" stroke-miterlimit="10"/>
<path d="M112.587 106.701C113.033 106.139 113.573 105.658 114.182 105.279" stroke="#BFBFBF" stroke-width="0.482" stroke-miterlimit="10"/>
<path d="M117.629 108.277C117.629 108.277 119.754 106.238 123.972 108.889C125.244 109.727 126.677 110.292 128.18 110.548" stroke="#BFBFBF" stroke-width="0.482" stroke-miterlimit="10"/>
<path d="M124.126 112.692C118.014 112.851 111.7 110.09 111.7 110.09C106.003 113.526 106.851 119.113 106.851 119.113C108.152 132.464 109.912 136.021 116.149 136.021C122.386 136.021 127.457 129.273 127.866 119.657C125.514 119.768 124.126 112.692 124.126 112.692Z" fill="white" stroke="#263238" stroke-width="0.482" stroke-linecap="round" stroke-linejoin="round"/>
<path d="M127.341 119.113C127.481 118.906 127.667 118.734 127.884 118.611C128.102 118.488 128.345 118.417 128.594 118.404C129.703 118.404 130.522 119.85 130.132 121.657C129.741 123.465 129.23 124.906 128.122 124.906C127.868 124.897 127.624 124.811 127.421 124.659C127.217 124.508 127.065 124.298 126.984 124.058" fill="white"/>
<path d="M127.341 119.113C127.481 118.906 127.667 118.734 127.884 118.611C128.102 118.488 128.345 118.417 128.594 118.404C129.703 118.404 130.522 119.85 130.132 121.657C129.741 123.465 129.23 124.906 128.122 124.906C127.868 124.897 127.624 124.811 127.421 124.659C127.217 124.508 127.065 124.298 126.984 124.058" stroke="#263238" stroke-width="0.482" stroke-linecap="round" stroke-linejoin="round"/>
<path d="M115.19 125.668C115.19 125.668 115.937 126.69 114.505 127.456C113.074 128.222 111.936 128.208 111.57 127.331C111.203 126.453 112.794 119.137 112.794 119.137" stroke="#263238" stroke-width="0.482" stroke-linecap="round" stroke-linejoin="round"/>
<path d="M112.553 120.308C111.782 119.918 108.697 118.568 105.767 120.409L105.954 123.243C105.954 123.243 107.034 123.836 109.512 123.836C110.322 123.851 111.132 123.767 111.922 123.586" stroke="#263238" stroke-width="0.482" stroke-linecap="round" stroke-linejoin="round"/>
<path d="M115.112 120.409L116.009 123.364C116.009 123.364 116.375 123.846 118.858 123.846C121.34 123.846 122.154 123.253 122.154 123.253L122.082 120.419C122.082 120.419 118.482 118.298 115.112 120.409Z" stroke="#263238" stroke-width="0.482" stroke-linecap="round" stroke-linejoin="round"/>
<path d="M112.751 120.409H115.112" stroke="#263238" stroke-width="0.482" stroke-linecap="round" stroke-linejoin="round"/>
<path d="M113.252 130.136C114.542 130.504 115.915 130.461 117.18 130.015C118.154 129.648 119.002 129.009 119.624 128.174" stroke="#263238" stroke-width="0.482" stroke-linecap="round" stroke-linejoin="round"/>
<path d="M117.18 117.614C120.279 116.336 121.648 117.869 121.648 117.869" stroke="#263238" stroke-width="0.482" stroke-linecap="round" stroke-linejoin="round"/>
<path d="M109.001 117.488C109.533 117.233 110.127 117.134 110.714 117.201C111.3 117.269 111.856 117.5 112.317 117.869" stroke="#263238" stroke-width="0.482" stroke-linecap="round" stroke-linejoin="round"/>
<path d="M118.414 119.768C118.703 119.768 118.896 120.25 118.896 120.814C118.896 121.378 118.655 121.855 118.376 121.855C118.096 121.855 117.894 121.373 117.894 120.814C117.894 120.255 118.13 119.768 118.414 119.768Z" fill="#263238"/>
<path d="M110.717 119.638C111.001 119.638 111.199 120.12 111.199 120.684C111.199 121.248 110.958 121.725 110.678 121.725C110.399 121.725 110.196 121.243 110.196 120.684C110.196 120.125 110.437 119.638 110.717 119.638Z" fill="#263238"/>
<path d="M105.579 114.317C105.678 114.885 105.84 115.441 106.061 115.975" stroke="#BFBFBF" stroke-width="0.482" stroke-miterlimit="10"/>
<path d="M109.275 107.949C106.229 107.13 105.024 108.962 105.251 111.854" stroke="#BFBFBF" stroke-width="0.482" stroke-miterlimit="10"/>
<path d="M112.5 139.598L116.211 146.278L125.124 139.246L127.866 139.631L122.082 149.826C122.03 149.917 121.959 149.998 121.875 150.061C121.79 150.125 121.694 150.171 121.591 150.197C121.489 150.223 121.382 150.227 121.277 150.211C121.173 150.194 121.073 150.157 120.983 150.1L116.052 146.987L112.196 149.339C112.084 149.408 111.955 149.447 111.823 149.453C111.691 149.459 111.56 149.432 111.441 149.374C111.322 149.316 111.22 149.229 111.144 149.121C111.068 149.012 111.021 148.887 111.006 148.756L110.042 140.051L112.5 139.598Z" fill="#A0B5FF"/>
<mask id="mask3_5_4021" style="mask-type:luminance" maskUnits="userSpaceOnUse" x="110" y="139" width="18" height="12">
<path d="M112.5 139.598L116.211 146.278L125.124 139.246L127.866 139.631L122.082 149.826C122.03 149.917 121.959 149.998 121.875 150.061C121.79 150.125 121.694 150.171 121.591 150.197C121.489 150.223 121.382 150.227 121.277 150.211C121.173 150.194 121.073 150.157 120.983 150.1L116.052 146.987L112.196 149.339C112.084 149.408 111.955 149.447 111.823 149.453C111.691 149.459 111.56 149.432 111.441 149.374C111.322 149.316 111.22 149.229 111.144 149.121C111.068 149.012 111.021 148.887 111.006 148.756L110.042 140.051L112.5 139.598Z" fill="white"/>
</mask>
<g mask="url(#mask3_5_4021)">
<path opacity="0.3" d="M112.172 139.554L116.211 146.278L125.283 139.12L128.011 139.554L122.097 149.826C122.044 149.917 121.973 149.998 121.889 150.061C121.805 150.125 121.708 150.171 121.606 150.197C121.503 150.223 121.396 150.227 121.292 150.211C121.187 150.194 121.087 150.157 120.998 150.1L116.067 146.987L112.211 149.339C112.098 149.408 111.97 149.447 111.838 149.453C111.706 149.459 111.574 149.432 111.455 149.374C111.337 149.316 111.235 149.229 111.159 149.121C111.083 149.012 111.035 148.887 111.02 148.756L110.056 140.051L112.172 139.554Z" fill="black"/>
</g>
<path d="M112.5 139.598L116.211 146.278L125.124 139.246L127.866 139.631L122.082 149.826C122.03 149.917 121.959 149.998 121.875 150.061C121.79 150.125 121.694 150.171 121.591 150.197C121.489 150.223 121.382 150.227 121.277 150.211C121.173 150.194 121.073 150.157 120.983 150.1L116.052 146.987L112.196 149.339C112.084 149.408 111.955 149.447 111.823 149.453C111.691 149.459 111.56 149.432 111.441 149.374C111.322 149.316 111.22 149.229 111.144 149.121C111.068 149.012 111.021 148.887 111.006 148.756L110.042 140.051L112.5 139.598Z" stroke="#263238" stroke-width="0.482" stroke-linecap="round" stroke-linejoin="round"/>
<path d="M57.2387 183.479H81.4737V186.708H57.2387C56.9831 186.708 56.7379 186.607 56.5571 186.426C56.3763 186.245 56.2747 186 56.2747 185.744V184.428C56.2785 184.175 56.3818 183.934 56.5621 183.756C56.7425 183.578 56.9855 183.479 57.2387 183.479Z" fill="#263238" stroke="#263238" stroke-width="0.482" stroke-linecap="round" stroke-linejoin="round"/>
<path d="M102.325 186.708H81.4737V183.479L102.378 184.853C102.545 184.865 102.701 184.939 102.816 185.062C102.93 185.184 102.994 185.345 102.995 185.513V186.048C102.995 186.135 102.978 186.222 102.944 186.303C102.91 186.384 102.861 186.457 102.798 186.518C102.736 186.58 102.662 186.628 102.581 186.661C102.499 186.693 102.413 186.71 102.325 186.708Z" fill="#A0B5FF" stroke="#263238" stroke-width="0.482" stroke-linecap="round" stroke-linejoin="round"/>
<path d="M122.097 120.886L127.341 119.113L126.719 119.898" stroke="#263238" stroke-width="0.482" stroke-linecap="round" stroke-linejoin="round"/>
<path d="M155.687 126.921C155.687 126.921 149.648 108.48 164.845 107.188C180.043 105.896 181.821 120.048 183.214 127.143C184.304 132.69 194.676 142.837 186.646 150.409C178.269 158.318 157.861 155.677 156.685 144.437C155.509 133.197 156.574 130.893 155.687 126.921Z" fill="#263238" stroke="#263238" stroke-width="0.482" stroke-linecap="round" stroke-linejoin="round"/>
<path d="M173.406 129.866C173.406 129.866 172.745 138.06 176.963 145.073C176.963 145.073 171.28 146.929 165.351 145.165C165.597 142.994 165.477 140.798 164.995 138.667L164.792 137.776L169.101 134.05L173.406 129.866Z" fill="white"/>
<mask id="mask4_5_4021" style="mask-type:luminance" maskUnits="userSpaceOnUse" x="164" y="129" width="13" height="17">
<path d="M173.406 129.866C173.406 129.866 172.745 138.06 176.963 145.073C176.963 145.073 171.28 146.929 165.351 145.165C165.597 142.994 165.477 140.798 164.995 138.667L164.792 137.776L169.101 134.05L173.406 129.866Z" fill="white"/>
</mask>
<g mask="url(#mask4_5_4021)">
<path d="M162.975 136.021C163.761 140.422 164.479 141.381 168.21 140.595C170.971 140.012 173.328 135.867 173.463 132.855C173.328 131.487 173.262 130.113 173.266 128.738L169.101 134.04L162.975 136.021Z" fill="#263238"/>
</g>
<path d="M173.406 129.866C173.406 129.866 172.745 138.06 176.963 145.073C176.963 145.073 171.28 146.929 165.351 145.165C165.597 142.994 165.477 140.798 164.995 138.667L164.792 137.776L169.101 134.05L173.406 129.866Z" stroke="#263238" stroke-width="0.482" stroke-linecap="round" stroke-linejoin="round"/>
<path d="M131.12 176.654C131.12 176.654 122.709 172.798 122.236 175.989C121.764 179.179 123.822 184.105 131.525 181.681L147.686 183.811C147.686 183.811 150.453 178.302 147.498 175.299C147.493 175.299 133.255 177.512 131.12 176.654Z" fill="white" stroke="#263238" stroke-width="0.482" stroke-linecap="round" stroke-linejoin="round"/>
<path d="M118.159 180.105C118.159 180.105 116.828 180.534 116.631 181.416C116.433 182.298 116.004 183.546 116.515 183.551C117.026 183.556 117.648 181.797 117.648 181.797L118.944 181.459L118.159 180.105Z" fill="white" stroke="#263238" stroke-width="0.482" stroke-linecap="round" stroke-linejoin="round"/>
<path d="M126.969 171.733L118.225 172.649L119.53 185.103L128.273 184.187L126.969 171.733Z" fill="white" stroke="#263238" stroke-width="0.482" stroke-linecap="round" stroke-linejoin="round"/>
<path d="M118.222 172.648L116.918 172.785L118.222 185.239L119.526 185.102L118.222 172.648Z" fill="#A0B5FF" stroke="#263238" stroke-width="0.482" stroke-linecap="round" stroke-linejoin="round"/>
<path d="M124.617 169.93C124.118 169.988 123.66 170.24 123.343 170.63C123.026 171.021 122.875 171.521 122.921 172.022C122.928 172.066 122.938 172.109 122.95 172.152L123.388 172.108L123.87 172.06C123.86 172.016 123.852 171.971 123.846 171.925C123.828 171.753 123.855 171.578 123.925 171.419C123.995 171.261 124.106 171.123 124.246 171.021C124.387 170.918 124.551 170.855 124.724 170.836C124.897 170.818 125.071 170.845 125.23 170.916C125.389 170.987 125.526 171.098 125.628 171.238C125.73 171.379 125.793 171.544 125.811 171.716C125.829 171.889 125.802 172.063 125.731 172.222C125.66 172.38 125.549 172.518 125.408 172.619C125.464 172.775 125.563 172.91 125.694 173.011C125.825 173.112 125.981 173.173 126.145 173.188C126.431 172.914 126.623 172.558 126.696 172.169C126.769 171.78 126.719 171.377 126.552 171.019C126.385 170.66 126.111 170.362 125.766 170.167C125.422 169.971 125.026 169.889 124.632 169.93H124.617Z" fill="white" stroke="#263238" stroke-width="0.482" stroke-linecap="round" stroke-linejoin="round"/>
<path d="M119.87 175.232L122.882 174.914" stroke="#263238" stroke-width="0.482" stroke-linecap="round" stroke-linejoin="round"/>
<path d="M120.014 176.601L125.861 175.989" stroke="#263238" stroke-width="0.482" stroke-linecap="round" stroke-linejoin="round"/>
<path d="M120.159 177.974L123.085 177.671" stroke="#263238" stroke-width="0.482" stroke-linecap="round" stroke-linejoin="round"/>
<path d="M120.304 179.348L125.186 178.837" stroke="#263238" stroke-width="0.482" stroke-linecap="round" stroke-linejoin="round"/>
<path d="M120.448 180.722L123.369 180.413" stroke="#263238" stroke-width="0.482" stroke-linecap="round" stroke-linejoin="round"/>
<path d="M120.593 182.091L127.003 181.421" stroke="#263238" stroke-width="0.482" stroke-linecap="round" stroke-linejoin="round"/>
<path d="M120.733 183.464L123.745 183.151" stroke="#263238" stroke-width="0.482" stroke-linecap="round" stroke-linejoin="round"/>
<path d="M122.998 170.099C122.499 170.158 122.043 170.41 121.727 170.801C121.411 171.191 121.26 171.69 121.306 172.19C121.312 172.236 121.32 172.281 121.33 172.325L121.774 172.277L122.256 172.229C122.241 172.185 122.231 172.14 122.227 172.094C122.217 171.842 122.304 171.596 122.469 171.405C122.635 171.215 122.867 171.094 123.118 171.068C123.369 171.043 123.62 171.113 123.821 171.266C124.021 171.419 124.156 171.643 124.198 171.892C124.217 172.064 124.189 172.238 124.117 172.396C124.044 172.554 123.931 172.689 123.788 172.788C123.845 172.943 123.944 173.079 124.074 173.18C124.205 173.281 124.362 173.342 124.526 173.357C124.811 173.083 125.004 172.726 125.077 172.337C125.15 171.948 125.099 171.546 124.933 171.187C124.766 170.828 124.491 170.53 124.147 170.335C123.803 170.14 123.406 170.057 123.012 170.099H122.998Z" fill="white" stroke="#263238" stroke-width="0.482" stroke-linecap="round" stroke-linejoin="round"/>
<path d="M121.378 170.267C120.879 170.327 120.423 170.579 120.107 170.969C119.791 171.36 119.64 171.859 119.687 172.359C119.687 172.407 119.687 172.446 119.687 172.494L120.13 172.446L120.612 172.398C120.6 172.355 120.59 172.311 120.583 172.268C120.563 172.094 120.59 171.918 120.66 171.758C120.73 171.598 120.841 171.459 120.982 171.355C121.123 171.252 121.289 171.187 121.463 171.169C121.636 171.15 121.812 171.177 121.972 171.248C122.132 171.319 122.27 171.43 122.373 171.572C122.476 171.713 122.539 171.879 122.557 172.053C122.575 172.227 122.547 172.403 122.476 172.562C122.404 172.722 122.292 172.86 122.15 172.962C122.204 173.116 122.302 173.252 122.432 173.352C122.562 173.452 122.719 173.513 122.882 173.526C123.093 173.328 123.255 173.084 123.355 172.813C123.456 172.542 123.492 172.251 123.461 171.964C123.402 171.466 123.152 171.01 122.764 170.693C122.375 170.377 121.878 170.224 121.378 170.267Z" fill="white" stroke="#263238" stroke-width="0.482" stroke-linecap="round" stroke-linejoin="round"/>
<path d="M119.764 170.436C119.264 170.494 118.807 170.746 118.49 171.136C118.173 171.527 118.021 172.027 118.067 172.528C118.074 172.573 118.084 172.618 118.096 172.663L118.535 172.615L119.017 172.566C119.006 172.523 118.998 172.48 118.993 172.436C118.974 172.264 119.001 172.089 119.071 171.93C119.141 171.771 119.252 171.634 119.393 171.532C119.533 171.429 119.698 171.366 119.87 171.347C120.043 171.329 120.217 171.356 120.376 171.427C120.535 171.497 120.672 171.609 120.774 171.749C120.876 171.89 120.94 172.054 120.958 172.227C120.976 172.4 120.948 172.574 120.877 172.733C120.806 172.891 120.695 173.029 120.554 173.13C120.611 173.285 120.71 173.42 120.841 173.52C120.971 173.62 121.128 173.68 121.292 173.694C121.501 173.495 121.661 173.251 121.762 172.98C121.862 172.71 121.899 172.42 121.87 172.133C121.812 171.63 121.558 171.17 121.164 170.853C120.77 170.536 120.267 170.386 119.764 170.436Z" fill="white" stroke="#263238" stroke-width="0.482" stroke-linecap="round" stroke-linejoin="round"/>
<path d="M117.359 172.605C117.338 172.431 117.364 172.255 117.434 172.094C117.504 171.933 117.615 171.794 117.756 171.69C117.897 171.586 118.064 171.522 118.238 171.503C118.412 171.484 118.588 171.511 118.748 171.582C118.908 171.654 119.047 171.766 119.149 171.908C119.252 172.05 119.315 172.216 119.333 172.391C119.35 172.565 119.321 172.741 119.249 172.9C119.176 173.06 119.063 173.197 118.92 173.299C118.977 173.454 119.076 173.589 119.207 173.689C119.337 173.789 119.494 173.849 119.658 173.863C119.932 173.601 120.121 173.263 120.201 172.892C120.281 172.521 120.248 172.135 120.107 171.784C119.965 171.432 119.722 171.13 119.408 170.918C119.094 170.706 118.723 170.592 118.344 170.592C117.965 170.592 117.595 170.706 117.281 170.918C116.967 171.13 116.723 171.432 116.582 171.784C116.441 172.135 116.408 172.521 116.488 172.892C116.568 173.263 116.757 173.601 117.031 173.863L116.92 172.778L117.402 172.73C117.383 172.69 117.369 172.648 117.359 172.605Z" fill="white" stroke="#263238" stroke-width="0.482" stroke-linecap="round" stroke-linejoin="round"/>
<path d="M115.908 176.138C115.99 176.32 116.085 176.495 116.192 176.663C116.099 176.995 116.082 177.344 116.142 177.684C116.202 178.023 116.338 178.345 116.539 178.625C116.539 178.625 116.578 179.999 117.065 180.216C117.551 180.433 118.327 180.698 118.313 180.312C118.298 179.927 118.072 178.775 117.195 178.519C117.195 178.519 118.202 178.717 118.091 178.158C117.98 177.598 117.788 176.789 117.171 176.557L116.838 176.413C116.838 176.413 117.638 176.557 117.571 175.955C117.503 175.352 117.436 174.644 116.978 174.475C116.872 174.437 116.751 174.403 116.626 174.369C115.951 174.21 115.517 175.27 115.908 176.138Z" fill="white" stroke="#263238" stroke-width="0.482" stroke-linecap="round" stroke-linejoin="round"/>
<path d="M130.175 176.548C130.175 176.548 129.235 174.465 127.697 173.381C126.16 172.296 125.581 170.185 124.955 170.696C124.328 171.207 124.897 173.448 125.871 174.215C126.844 174.981 125.755 176.692 128.151 178.803" fill="white"/>
<path d="M130.175 176.548C130.175 176.548 129.235 174.465 127.697 173.381C126.16 172.296 125.581 170.185 124.955 170.696C124.328 171.207 124.897 173.448 125.871 174.215C126.844 174.981 125.755 176.692 128.151 178.803" stroke="#263238" stroke-width="0.482" stroke-linecap="round" stroke-linejoin="round"/>
<path d="M186.795 182.626C186.583 183.937 186.357 185.298 186.116 186.708H153.06C153.007 186.265 153.321 185.373 153.619 183.816C149.937 185.065 143.497 183.127 143.497 183.127C144.297 181.021 143.743 175.67 143.743 175.67L147.493 174.875C147.493 174.875 149.05 158.574 150.236 153.903C151.494 148.948 158.377 143.54 181.527 145.136C181.527 145.136 192.208 144.933 193.866 152.014C195.428 158.622 187.239 182.322 186.795 182.626Z" fill="#A0B5FF"/>
<mask id="mask5_5_4021" style="mask-type:luminance" maskUnits="userSpaceOnUse" x="143" y="144" width="52" height="43">
<path d="M186.795 182.626C186.583 183.937 186.357 185.298 186.116 186.708H153.06C153.007 186.265 153.321 185.373 153.619 183.816C149.937 185.065 143.497 183.127 143.497 183.127C144.297 181.021 143.743 175.67 143.743 175.67L147.493 174.875C147.493 174.875 149.05 158.574 150.236 153.903C151.494 148.948 158.377 143.54 181.527 145.136C181.527 145.136 192.208 144.933 193.866 152.014C195.428 158.622 187.239 182.322 186.795 182.626Z" fill="white"/>
</mask>
<g mask="url(#mask5_5_4021)">
<path opacity="0.2" d="M153.619 183.821C151.06 184.689 147.18 184.019 145.049 183.527C145.604 183.103 145.951 182.235 146.081 181.117C147.816 180.847 149.551 178.09 150.694 165.558C150.964 162.618 151.542 160.772 152.284 159.528C151.536 162.349 151.506 165.312 152.198 168.146C152.612 169.829 153.913 173.877 154.029 175.555C154.261 178.316 154.123 181.096 153.619 183.821Z" fill="black"/>
<path opacity="0.2" d="M186.791 182.631C186.585 183.942 186.36 185.301 186.116 186.708H153.06C153.653 184.896 155.109 176.268 153.06 171.024C152.978 170.812 160.16 167.795 164.97 169.028C185.359 174.258 178.336 157.407 184.159 154.342L179.136 174.041L176.394 174.914C182.332 175.28 180.616 184.183 180.616 184.183C182.797 184.472 185.006 183.917 186.791 182.631Z" fill="black"/>
</g>
<path d="M186.795 182.626C186.583 183.937 186.357 185.298 186.116 186.708H153.06C153.007 186.265 153.321 185.373 153.619 183.816C149.937 185.065 143.497 183.127 143.497 183.127C144.297 181.021 143.743 175.67 143.743 175.67L147.493 174.875C147.493 174.875 149.05 158.574 150.236 153.903C151.494 148.948 158.377 143.54 181.527 145.136C181.527 145.136 192.208 144.933 193.866 152.014C195.428 158.622 187.239 182.322 186.795 182.626Z" stroke="#263238" stroke-width="0.482" stroke-linecap="round" stroke-linejoin="round"/>
<path d="M144.36 174.755C144.36 174.755 145.613 175.425 146.023 178.37C146.433 181.315 145.801 183.85 144.167 183.811C142.533 183.773 142.239 183.132 142.577 182.525C142.914 181.917 143.628 181.103 143.083 178.582C142.398 175.425 140.991 175.714 140.991 175.714C140.991 175.714 142.866 173.916 144.36 174.755Z" fill="#A0B5FF" stroke="#263238" stroke-width="0.482" stroke-linecap="round" stroke-linejoin="round"/>
<path opacity="0.2" d="M146.081 181.136C145.951 182.235 145.599 183.103 145.049 183.546C144.798 183.743 144.486 183.843 144.167 183.831C142.529 183.792 142.239 183.151 142.577 182.544C142.914 181.936 143.628 181.122 143.083 178.601C142.398 175.444 140.991 175.733 140.991 175.733C140.991 175.733 142.871 173.935 144.365 174.769C144.365 174.769 145.618 175.439 146.028 178.384C146.158 179.296 146.176 180.22 146.081 181.136Z" fill="black"/>
<path d="M175.849 139.246C175.849 139.246 167.54 141.767 163.761 140.422L162.975 145.468C162.975 145.468 166.653 148.669 178.433 144.731L175.849 139.246Z" fill="#A0B5FF" stroke="#263238" stroke-width="0.482" stroke-linecap="round" stroke-linejoin="round"/>
<path d="M146.322 173.285C147.31 176.499 148.192 179.069 147.32 179.353C146.447 179.637 145.729 176.986 144.741 173.767C143.753 170.547 142.871 167.983 143.743 167.703C144.616 167.423 145.334 170.065 146.322 173.285Z" fill="#A0B5FF" stroke="#263238" stroke-width="0.482" stroke-linecap="round" stroke-linejoin="round"/>
<path d="M144.616 173.362L146.197 172.88C145.965 172.123 145.748 171.4 145.541 170.754L143.965 171.236C144.158 171.887 144.379 172.6 144.616 173.362Z" fill="#263238"/>
<path d="M144.471 169.226C144.471 169.226 145.209 167.746 145.888 168.792C146.568 169.838 146.708 173.015 147.19 173.019" stroke="#263238" stroke-width="0.482" stroke-linecap="round" stroke-linejoin="round"/>
<path d="M154.275 153.484C153.672 155.33 152.829 157.34 152.284 159.552C151.536 162.373 151.506 165.336 152.198 168.17C152.612 169.853 153.913 173.901 154.029 175.579C154.259 178.334 154.121 181.107 153.619 183.826C153.321 185.378 153.007 186.27 153.06 186.718" stroke="#263238" stroke-width="0.482" stroke-linecap="round" stroke-linejoin="round"/>
<path d="M174.736 175.463C174.736 175.463 161.288 177.3 156.752 177.391C156.058 177.391 153.976 177.15 153.976 177.15L150.752 174.996C150.752 174.996 148.269 174.629 147.05 174.904L145.662 176.721C145.662 176.721 143.931 177.28 144.919 178.591C144.816 178.899 144.805 179.23 144.886 179.544C144.968 179.858 145.138 180.141 145.377 180.36C145.377 180.36 145.454 181.503 146.216 181.961C146.216 181.961 146.365 183.026 147.204 183.329C148.043 183.633 153.292 182.794 154.892 182.341C156.492 181.888 172.013 184.318 178.1 184.168C178.1 184.178 183.315 178.066 174.736 175.463Z" fill="white" stroke="#263238" stroke-width="0.482" stroke-linecap="round" stroke-linejoin="round"/>
<path d="M174.943 124.564C174.943 124.564 171.396 125.947 169.294 122.12C168.383 120.462 166.542 117.006 166.542 117.006C166.016 118.361 166.662 120.424 166.662 120.424C165.457 119.898 163.134 119.773 163.134 119.773C162.31 118.394 162.069 115.261 162.069 115.261C160.927 117.189 161.254 119.908 161.254 119.908C159.39 120.087 157.625 120.834 156.198 122.048C156.502 123.277 156.608 125.195 156.507 129.182C156.376 134.382 158.878 135.809 161.327 137.756C163.775 139.704 170.441 140.706 172.745 130.526C172.745 130.526 177.565 128.729 175.213 124.954L174.943 124.564Z" fill="white" stroke="#263238" stroke-width="0.482" stroke-linecap="round" stroke-linejoin="round"/>
<path d="M170.991 118.298C171.708 119.848 172.755 121.223 174.058 122.327C175.36 123.432 176.888 124.239 178.534 124.694" stroke="#BFBFBF" stroke-width="0.482" stroke-miterlimit="10"/>
<path d="M169.723 114.442C169.836 115.075 169.997 115.699 170.205 116.307" stroke="#BFBFBF" stroke-width="0.482" stroke-miterlimit="10"/>
<path d="M172.133 114.678C172.133 114.678 174.871 119.903 179.151 120.028" stroke="#BFBFBF" stroke-width="0.482" stroke-miterlimit="10"/>
<path d="M180.525 127.967C180.525 127.967 187.49 139.246 187.49 145.801" stroke="#BFBFBF" stroke-width="0.482" stroke-miterlimit="10"/>
<path d="M178.683 130.975C178.683 130.975 180.404 137.265 183.176 140.422" stroke="#BFBFBF" stroke-width="0.482" stroke-miterlimit="10"/>
<path d="M156.796 114.62C156.587 115.548 156.45 116.491 156.386 117.44" stroke="#BFBFBF" stroke-width="0.482" stroke-miterlimit="10"/>
<path d="M162.498 108.711C162.498 108.711 159.254 109.318 157.138 113.141" stroke="#BFBFBF" stroke-width="0.482" stroke-miterlimit="10"/>
<path d="M158.391 137.915C158.391 137.915 158.285 142.976 160.869 145.82" stroke="#BFBFBF" stroke-width="0.482" stroke-miterlimit="10"/>
<path d="M162.975 122.429C166.489 121.739 168.026 123.528 168.026 123.528" stroke="#263238" stroke-width="0.482" stroke-linecap="round" stroke-linejoin="round"/>
<path d="M157.124 123.909C157.511 123.517 157.975 123.21 158.487 123.006C158.999 122.802 159.547 122.706 160.098 122.723" stroke="#263238" stroke-width="0.482" stroke-linecap="round" stroke-linejoin="round"/>
<path d="M165.265 134.204C166.349 133.587 166.952 131.977 166.952 131.977L166.725 132.102C165.311 132.858 163.771 133.348 162.18 133.548C162.551 133.98 163.054 134.278 163.612 134.397C164.169 134.515 164.75 134.447 165.265 134.204Z" stroke="#263238" stroke-width="0.482" stroke-linecap="round" stroke-linejoin="round"/>
<path d="M160.965 130.859C160.507 130.801 159.201 130.184 159.09 129.297C159.056 129.032 159.249 128.791 159.534 128.579C160.096 128.184 160.549 127.651 160.848 127.032C161.148 126.413 161.284 125.728 161.245 125.041C161.245 124.945 161.245 124.887 161.245 124.887" stroke="#263238" stroke-width="0.482" stroke-linecap="round" stroke-linejoin="round"/>
<path d="M165.457 123.841C165.79 123.798 166.132 124.352 166.219 125.07C166.306 125.788 166.113 126.4 165.775 126.444C165.438 126.487 165.105 125.933 165.014 125.215C164.922 124.496 165.125 123.88 165.457 123.841Z" fill="#263238"/>
<path d="M159.664 125.918C159.751 126.622 159.558 127.225 159.23 127.263C158.902 127.302 158.57 126.781 158.483 126.063C158.396 125.345 158.589 124.752 158.917 124.713C159.244 124.675 159.577 125.21 159.664 125.918Z" fill="#263238"/>
<path d="M170.451 124.444C170.451 124.444 170.003 123.171 170.514 122.516" stroke="#263238" stroke-width="0.482" stroke-linecap="round" stroke-linejoin="round"/>
<path d="M186.791 182.63C185.005 183.919 182.794 184.474 180.611 184.183C180.611 184.183 182.327 175.28 176.389 174.914L179.132 174.041L184.154 154.342" stroke="#263238" stroke-width="0.482" stroke-linecap="round" stroke-linejoin="round"/>
<path d="M180.611 174.041C180.611 174.041 183.793 174.88 184.684 177.618" stroke="#263238" stroke-width="0.482" stroke-linecap="round" stroke-linejoin="round"/>
<path d="M167.631 142.34C170.658 142.319 173.647 141.663 176.404 140.412" stroke="#263238" stroke-width="0.482" stroke-linecap="round" stroke-linejoin="round"/>
<path d="M163.534 141.868C164.214 142.045 164.907 142.168 165.607 142.234" stroke="#263238" stroke-width="0.482" stroke-linecap="round" stroke-linejoin="round"/>
<path d="M177.088 147.517C177.946 147.215 178.846 146.86 179.787 146.452" stroke="#263238" stroke-width="0.482" stroke-linecap="round" stroke-linejoin="round"/>
<path d="M162.199 147.589C162.199 147.589 165.433 150.66 173.989 148.466" stroke="#263238" stroke-width="0.482" stroke-linecap="round" stroke-linejoin="round"/>
<path d="M164.995 162.849C164.995 162.849 165.477 170.258 170.991 173.019" stroke="#263238" stroke-width="0.482" stroke-linecap="round" stroke-linejoin="round"/>
<path d="M174.601 175.579C174.601 175.579 175.681 173.198 178.91 174.374C178.91 174.374 181.961 175.425 182.877 178.563C183.793 181.7 182.645 184.501 180.419 184.616C178.192 184.732 177.787 184.559 178.163 183.874C178.558 183.127 178.779 182.3 178.809 181.455C178.839 180.61 178.677 179.77 178.336 178.996C176.953 175.685 174.601 175.579 174.601 175.579Z" fill="#A0B5FF"/>
<mask id="mask6_5_4021" style="mask-type:luminance" maskUnits="userSpaceOnUse" x="174" y="174" width="10" height="11">
<path d="M174.601 175.579C174.601 175.579 175.681 173.198 178.91 174.374C178.91 174.374 181.961 175.425 182.877 178.563C183.793 181.7 182.645 184.501 180.419 184.616C178.192 184.732 177.787 184.559 178.163 183.874C178.558 183.127 178.779 182.3 178.809 181.455C178.839 180.61 178.677 179.77 178.336 178.996C176.953 175.685 174.601 175.579 174.601 175.579Z" fill="white"/>
</mask>
<g mask="url(#mask6_5_4021)">
<g opacity="0.2">
<path d="M174.601 175.579C174.601 175.579 175.681 173.198 178.91 174.374C178.91 174.374 181.961 175.425 182.877 178.563C183.793 181.7 182.645 184.501 180.419 184.616C178.192 184.732 177.787 184.559 178.163 183.874C178.558 183.127 178.779 182.3 178.809 181.455C178.839 180.61 178.677 179.77 178.336 178.996C176.953 175.685 174.601 175.579 174.601 175.579Z" fill="black"/>
</g>
</g>
<path d="M174.601 175.579C174.601 175.579 175.681 173.198 178.91 174.374C178.91 174.374 181.961 175.425 182.877 178.563C183.793 181.7 182.645 184.501 180.419 184.616C178.192 184.732 177.787 184.559 178.163 183.874C178.558 183.127 178.779 182.3 178.809 181.455C178.839 180.61 178.677 179.77 178.336 178.996C176.953 175.685 174.601 175.579 174.601 175.579Z" stroke="#263238" stroke-width="0.482" stroke-linecap="round" stroke-linejoin="round"/>
<path d="M26.916 165.78C26.916 165.78 25.258 151.604 10.6003 157.34C10.6003 157.34 23.0745 157.248 25.1857 167.944L27.1137 167.737L26.916 165.78Z" fill="#A0B5FF"/>
<path opacity="0.1" d="M26.916 165.78C26.916 165.78 25.258 151.604 10.6003 157.34C10.6003 157.34 23.0745 157.248 25.1857 167.944L27.1137 167.737L26.916 165.78Z" fill="black"/>
<path d="M27.1185 165.534C27.1185 165.534 25.8509 150.419 23.089 138.672C23.089 138.672 31.524 147.594 29.596 164.392L27.1185 165.534Z" fill="#A0B5FF"/>
<path opacity="0.1" d="M27.1185 165.534C27.1185 165.534 25.8509 150.419 23.089 138.672C23.089 138.672 31.524 147.594 29.596 164.392L27.1185 165.534Z" fill="black"/>
<path d="M26.2991 175.55C26.2991 175.55 23.8891 154.728 15.7771 147.594C15.7771 147.594 30.2371 151.195 28.1066 173.309L26.2991 175.55Z" fill="#A0B5FF"/>
<path d="M28.8441 174.692C28.8441 174.692 32.3868 154.029 40.8507 147.324C40.8507 147.324 26.2076 150.139 27.1619 172.34L28.8441 174.692Z" fill="#A0B5FF"/>
<path d="M36.2717 167.915H19.1607V170.889H19.7295V181.382C19.7295 182.791 20.2873 184.142 21.2809 185.14C22.2745 186.138 23.6231 186.702 25.0315 186.708H30.3335C31.7465 186.708 33.1017 186.147 34.1013 185.149C35.1009 184.15 35.6631 182.795 35.6644 181.382V170.889H36.2331L36.2717 167.915Z" fill="white" stroke="#263238" stroke-width="0.482" stroke-miterlimit="10"/>
<path d="M30.9697 170.749H33.2448H30.9697Z" fill="white"/>
<path d="M30.9697 170.749H33.2448" stroke="#263238" stroke-width="0.482" stroke-miterlimit="10"/>
<path d="M22.0479 170.749H28.632H22.0479Z" fill="white"/>
<path d="M22.0479 170.749H28.632" stroke="#263238" stroke-width="0.482" stroke-miterlimit="10"/>
<path d="M94.184 173.617L89.7978 137.901C89.7145 137.342 89.4377 136.831 89.0158 136.456C88.5938 136.08 88.0535 135.865 87.4891 135.848H82.4666L88.2795 175.656H92.391C92.6494 175.661 92.9057 175.609 93.1422 175.505C93.3787 175.401 93.5896 175.246 93.7602 175.052C93.9309 174.858 94.0572 174.629 94.1304 174.381C94.2036 174.134 94.2219 173.873 94.184 173.617Z" fill="#A0B5FF" stroke="#263238" stroke-width="0.482" stroke-linecap="round" stroke-linejoin="round"/>
<path d="M91.292 175.656H40.7591C40.1955 175.637 39.6563 175.422 39.2354 175.046C38.8144 174.671 38.5383 174.16 38.4552 173.603L34.069 137.886C34.0302 137.631 34.0479 137.37 34.1208 137.121C34.1937 136.873 34.3199 136.644 34.4908 136.45C34.6616 136.255 34.8729 136.101 35.1098 135.997C35.3466 135.893 35.6034 135.842 35.862 135.848H86.4142C86.9778 135.866 87.517 136.082 87.9379 136.457C88.3589 136.832 88.635 137.343 88.7181 137.901L93.1043 173.617C93.1425 173.874 93.1238 174.137 93.0495 174.386C92.9752 174.635 92.8471 174.865 92.6743 175.06C92.5015 175.254 92.2882 175.408 92.0494 175.511C91.8105 175.614 91.552 175.664 91.292 175.656Z" fill="#263238"/>
<mask id="mask7_5_4021" style="mask-type:luminance" maskUnits="userSpaceOnUse" x="34" y="135" width="60" height="41">
<path d="M91.292 175.656H40.7591C40.1955 175.637 39.6563 175.422 39.2354 175.046C38.8144 174.671 38.5383 174.16 38.4552 173.603L34.069 137.886C34.0302 137.631 34.0479 137.37 34.1208 137.121C34.1937 136.873 34.3199 136.644 34.4908 136.45C34.6616 136.255 34.8729 136.101 35.1098 135.997C35.3466 135.893 35.6034 135.842 35.862 135.848H86.4142C86.9778 135.866 87.517 136.082 87.9379 136.457C88.3589 136.832 88.635 137.343 88.7181 137.901L93.1043 173.617C93.1425 173.874 93.1238 174.137 93.0495 174.386C92.9752 174.635 92.8471 174.865 92.6743 175.06C92.5015 175.254 92.2882 175.408 92.0494 175.511C91.8105 175.614 91.552 175.664 91.292 175.656Z" fill="white"/>
</mask>
<g mask="url(#mask7_5_4021)">
<path opacity="0.1" d="M91.292 175.656H40.7591C40.1955 175.637 39.6563 175.422 39.2354 175.046C38.8144 174.671 38.5383 174.16 38.4552 173.603L34.069 137.886C34.0302 137.631 34.0479 137.37 34.1208 137.121C34.1937 136.873 34.3199 136.644 34.4908 136.45C34.6616 136.255 34.8729 136.101 35.1098 135.997C35.3466 135.893 35.6034 135.842 35.862 135.848H86.4142C86.9778 135.866 87.517 136.082 87.9379 136.457C88.3589 136.832 88.635 137.343 88.7181 137.901L93.1043 173.617C93.1425 173.874 93.1238 174.137 93.0495 174.386C92.9752 174.635 92.8471 174.865 92.6743 175.06C92.5015 175.254 92.2882 175.408 92.0494 175.511C91.8105 175.614 91.552 175.664 91.292 175.656Z" fill="white"/>
</g>
<path d="M91.292 175.656H40.7591C40.1955 175.637 39.6563 175.422 39.2354 175.046C38.8144 174.671 38.5383 174.16 38.4552 173.603L34.069 137.886C34.0302 137.631 34.0479 137.37 34.1208 137.121C34.1937 136.873 34.3199 136.644 34.4908 136.45C34.6616 136.255 34.8729 136.101 35.1098 135.997C35.3466 135.893 35.6034 135.842 35.862 135.848H86.4142C86.9778 135.866 87.517 136.082 87.9379 136.457C88.3589 136.832 88.635 137.343 88.7181 137.901L93.1043 173.617C93.1425 173.874 93.1238 174.137 93.0495 174.386C92.9752 174.635 92.8471 174.865 92.6743 175.06C92.5015 175.254 92.2882 175.408 92.0494 175.511C91.8105 175.614 91.552 175.664 91.292 175.656Z" stroke="#263238" stroke-width="0.482" stroke-linecap="round" stroke-linejoin="round"/>
<path d="M67.7367 183.787L69.7563 160.781C69.7648 160.65 69.7463 160.518 69.7017 160.393C69.6571 160.269 69.5874 160.155 69.4971 160.059C69.4067 159.963 69.2975 159.886 69.1762 159.834C69.055 159.781 68.9243 159.755 68.7923 159.755H56.053C55.8139 159.754 55.5829 159.841 55.4048 160C55.2266 160.16 55.1141 160.38 55.089 160.618L52.8911 185.682C52.8825 185.813 52.9011 185.946 52.9457 186.07C52.9902 186.194 53.0599 186.308 53.1503 186.404C53.2407 186.5 53.3499 186.577 53.4711 186.629C53.5923 186.682 53.723 186.709 53.8551 186.708H79.1312C79.3868 186.708 79.632 186.607 79.8128 186.426C79.9936 186.245 80.0952 186 80.0952 185.744C80.0952 185.489 79.9936 185.243 79.8128 185.063C79.632 184.882 79.3868 184.78 79.1312 184.78H68.6766C68.5496 184.777 68.4244 184.749 68.3083 184.697C68.1922 184.646 68.0875 184.572 68.0001 184.479C67.9128 184.387 67.8446 184.278 67.7993 184.16C67.7541 184.041 67.7328 183.914 67.7367 183.787Z" fill="#263238" stroke="#263238" stroke-width="0.482" stroke-linecap="round" stroke-linejoin="round"/>
<path d="M80.0759 185.778C80.0759 185.522 79.9743 185.277 79.7935 185.096C79.6127 184.916 79.3675 184.814 79.1119 184.814H68.6766C68.5441 184.814 68.413 184.787 68.2914 184.735C68.1698 184.682 68.0604 184.605 67.9699 184.508C67.8794 184.411 67.8099 184.297 67.7656 184.172C67.7214 184.047 67.7033 183.915 67.7126 183.782L69.7322 160.777C69.7737 160.639 69.784 160.495 69.7625 160.353C69.741 160.211 69.6881 160.076 69.6077 159.957C69.5274 159.838 69.4215 159.739 69.2979 159.666C69.1743 159.594 69.036 159.55 68.8932 159.537C68.7503 159.525 68.6065 159.544 68.4722 159.594C68.3378 159.645 68.2164 159.724 68.1167 159.827C68.017 159.93 67.9415 160.054 67.8958 160.19C67.85 160.326 67.8352 160.47 67.8523 160.613L65.6544 185.677C65.6459 185.806 65.6638 185.937 65.7069 186.059C65.75 186.182 65.8175 186.295 65.9053 186.391C65.9932 186.487 66.0995 186.564 66.2179 186.617C66.3363 186.671 66.4643 186.7 66.5943 186.703H79.1263C79.3729 186.7 79.6088 186.602 79.7855 186.43C79.9621 186.258 80.066 186.024 80.0759 185.778Z" fill="#A0B5FF" stroke="#263238" stroke-width="0.482" stroke-linecap="round" stroke-linejoin="round"/>
<path d="M22.125 186.708H202.875" stroke="#263238" stroke-width="0.482" stroke-linecap="round" stroke-linejoin="round"/>
<path d="M190.782 99.1771H181.281C180.69 99.1771 180.122 99.4122 179.703 99.8308C179.285 100.249 179.05 100.817 179.05 101.409V106.036C179.05 106.628 179.285 107.195 179.703 107.614C180.122 108.033 180.69 108.268 181.281 108.268H183.764L184.492 112.533L188.299 108.268H190.782C191.075 108.268 191.366 108.211 191.637 108.099C191.908 107.987 192.155 107.823 192.363 107.616C192.57 107.408 192.735 107.162 192.848 106.891C192.96 106.62 193.018 106.329 193.018 106.036V101.428C193.02 101.133 192.964 100.841 192.852 100.568C192.74 100.295 192.576 100.046 192.368 99.8373C192.16 99.6281 191.913 99.462 191.641 99.3487C191.369 99.2354 191.077 99.1771 190.782 99.1771Z" fill="white" stroke="#263238" stroke-width="0.482" stroke-linecap="round" stroke-linejoin="round"/>
<path d="M176.216 85.522H166.715C166.422 85.5214 166.131 85.5787 165.86 85.6905C165.589 85.8024 165.342 85.9667 165.134 86.174C164.926 86.3813 164.762 86.6275 164.649 86.8986C164.537 87.1696 164.479 87.4602 164.479 87.7537V92.3761C164.479 92.9692 164.715 93.5381 165.134 93.9575C165.553 94.3769 166.122 94.6126 166.715 94.6126H169.198L171.082 98.8783L173.733 94.6126H176.216C176.809 94.6126 177.378 94.3769 177.797 93.9575C178.216 93.5381 178.452 92.9692 178.452 92.3761V87.7537C178.452 87.4602 178.394 87.1696 178.282 86.8986C178.169 86.6275 178.004 86.3813 177.797 86.174C177.589 85.9667 177.342 85.8024 177.071 85.6905C176.8 85.5787 176.509 85.5214 176.216 85.522Z" fill="white" stroke="#263238" stroke-width="0.482" stroke-linecap="round" stroke-linejoin="round"/>
<path d="M157.726 90.2986H148.751C148.191 90.2986 147.654 90.521 147.258 90.9169C146.863 91.3128 146.64 91.8498 146.64 92.4097V96.7767C146.64 97.3366 146.863 97.8736 147.258 98.2695C147.654 98.6654 148.191 98.8878 148.751 98.8878H151.099L153.547 102.913L155.379 98.8878H157.726C158.286 98.8878 158.823 98.6654 159.219 98.2695C159.615 97.8736 159.837 97.3366 159.837 96.7767V92.4097C159.837 91.8498 159.615 91.3128 159.219 90.9169C158.823 90.521 158.286 90.2986 157.726 90.2986Z" fill="white" stroke="#263238" stroke-width="0.482" stroke-linecap="round" stroke-linejoin="round"/>
<path d="M152.024 93.5618V94.0871C152.024 94.733 151.716 95.0849 151.06 95.0849H150.756V96.608H150.12V92.5592H151.06C151.701 92.5592 152.024 92.9111 152.024 93.5618ZM150.776 93.1376V94.5065H151.06C151.262 94.5065 151.368 94.4149 151.368 94.1257V93.5184C151.368 93.2292 151.262 93.1376 151.06 93.1376H150.776Z" fill="#263238"/>
<path d="M152.988 96.608H152.352V92.5592H152.988V94.2944H153.711V92.5592H154.357V96.608H153.711V94.8728H152.988V96.608Z" fill="#263238"/>
<path d="M156.69 93.5618V94.0871C156.69 94.733 156.381 95.0849 155.726 95.0849H155.427V96.608H154.791V92.5592H155.726C156.362 92.5592 156.69 92.9111 156.69 93.5618ZM155.441 93.1376V94.5065H155.74C155.943 94.5065 156.054 94.4149 156.054 94.1257V93.5184C156.054 93.2292 155.943 93.1376 155.74 93.1376H155.441Z" fill="#263238"/>
<path d="M170.104 90.6698V91.2097C170.104 91.8555 169.781 92.2267 169.14 92.2267C168.499 92.2267 168.176 91.8555 168.176 91.2097V89.1033C168.176 88.4574 168.499 88.0863 169.14 88.0863C169.781 88.0863 170.104 88.4574 170.104 89.1033V89.4986H169.501V89.0648C169.501 88.7756 169.376 88.6647 169.174 88.6647C168.971 88.6647 168.846 88.7756 168.846 89.0648V91.2482C168.846 91.5374 168.971 91.6435 169.174 91.6435C169.376 91.6435 169.501 91.5374 169.501 91.2482V90.6698H170.104Z" fill="#263238"/>
<path d="M171.632 89.9323H172.408V90.3806H171.632V91.1759H171.179V90.3806H170.407V89.9323H171.179V89.1515H171.632V89.9323Z" fill="#263238"/>
<path d="M173.921 89.9323H174.678V90.3806H173.902V91.1759H173.454V90.3806H172.678V89.9323H173.454V89.1515H173.902L173.921 89.9323Z" fill="#263238"/>
<path d="M181.575 104.166V103.549L184.154 102.585V103.211L182.39 103.838L184.159 104.469V105.096L181.575 104.166Z" fill="#263238"/>
<path d="M186.689 101.091H187.437L185.282 106.624H184.53L186.689 101.091Z" fill="#263238"/>
<path d="M187.793 105.115V104.489L189.562 103.857L187.793 103.226V102.599L190.372 103.563V104.18L187.793 105.115Z" fill="#263238"/>
</svg>
